<svg width="48" height="48" viewBox="0 0 48 48" fill="none" xmlns="http://www.w3.org/2000/svg">
<rect opacity="0.1" width="48" height="48" rx="12" fill="#66CC80"/>
<path d="M21.7833 39C21.2 39 20.75 38.4833 20.8333 37.9L22.3333 27.3333H16.5C15.0333 27.3333 15.95 26.0833 15.9833 26.0333C18.0833 22.3167 21.2333 16.8167 25.4 9.48333C25.5666 9.18333 25.9 9 26.2333 9C26.8166 9 27.2666 9.51667 27.1833 10.1L25.6833 20.6667H31.5333C32.2 20.6667 32.5666 20.9833 32.2 21.7667C26.7166 31.3333 23.5333 36.9167 22.6166 38.5167C22.45 38.8167 22.1333 39 21.7833 39Z" fill="#66CC80"/>
</svg>
