<svg width="48" height="48" viewBox="0 0 48 48" fill="none" xmlns="http://www.w3.org/2000/svg">
<rect opacity="0.1" width="48" height="48" rx="12" fill="#2E6EDF"/>
<path d="M19.2 32.2667C19.7067 32.9333 20 33.76 20 34.6667C20 36.88 18.2133 38.6667 16 38.6667C13.7867 38.6667 12 36.88 12 34.6667C12 32.4533 13.7867 30.6667 16 30.6667C16.5867 30.6667 17.1333 30.7867 17.64 31.0133L19.52 28.6533C18.2933 27.28 17.8 25.4667 18.0667 23.7333L15.36 22.8267C14.64 23.9333 13.4133 24.6667 12 24.6667C9.78667 24.6667 8 22.88 8 20.6667C8 18.4533 9.78667 16.6667 12 16.6667C14.2133 16.6667 16 18.4533 16 20.6667C16 20.76 16 20.8533 15.9867 20.9467L18.6933 21.8533C19.5467 20.24 21.12 19.0667 22.9867 18.76V15.88C21.28 15.4267 20 13.8667 20 12C20 9.78667 21.7867 8 24 8C26.2133 8 28 9.78667 28 12C28 13.8667 26.72 15.4267 25 15.88V18.76C26.8667 19.0667 28.44 20.24 29.2933 21.8533L32 20.9467C32 20.8533 32 20.76 32 20.6667C32 18.4533 33.7867 16.6667 36 16.6667C38.2133 16.6667 40 18.4533 40 20.6667C40 22.88 38.2133 24.6667 36 24.6667C34.5867 24.6667 33.36 23.9333 32.64 22.84L29.9333 23.7467C30.2 25.4667 29.72 27.28 28.48 28.6667L30.36 31.0267C30.8667 30.7867 31.4133 30.6667 32 30.6667C34.2133 30.6667 36 32.4533 36 34.6667C36 36.88 34.2133 38.6667 32 38.6667C29.7867 38.6667 28 36.88 28 34.6667C28 33.76 28.2933 32.9333 28.8 32.2667L26.92 29.9067C25.12 30.9067 22.9067 30.92 21.0933 29.9067L19.2 32.2667Z" fill="#2E6EDF"/>
</svg>
