<svg width="48" height="48" viewBox="0 0 48 48" fill="none" xmlns="http://www.w3.org/2000/svg">
<rect opacity="0.2" width="48" height="48" rx="12" fill="#FCFCFC"/>
<path d="M24 7.33337C14.8 7.33337 7.33331 14.8 7.33331 24C7.33331 33.2 14.8 40.6667 24 40.6667C33.2 40.6667 40.6666 33.2 40.6666 24C40.6666 14.8 33.2 7.33337 24 7.33337ZM22.3333 37.2167C15.75 36.4 10.6666 30.8 10.6666 24C10.6666 22.9667 10.8 21.9834 11.0166 21.0167L19 29V30.6667C19 32.5 20.5 34 22.3333 34V37.2167ZM33.8333 32.9834C33.4 31.6334 32.1666 30.6667 30.6666 30.6667H29V25.6667C29 24.75 28.25 24 27.3333 24H17.3333V20.6667H20.6666C21.5833 20.6667 22.3333 19.9167 22.3333 19V15.6667H25.6666C27.5 15.6667 29 14.1667 29 12.3334V11.65C33.8833 13.6334 37.3333 18.4167 37.3333 24C37.3333 27.4667 36 30.6167 33.8333 32.9834Z" fill="#FCFCFC"/>
</svg>
