<svg width="48" height="48" viewBox="0 0 48 48" fill="none" xmlns="http://www.w3.org/2000/svg">
<rect opacity="0.2" width="48" height="48" rx="12" fill="#FCFCFC"/>
<path d="M42.3334 24L38.2667 19.35L38.8334 13.2L32.8167 11.8333L29.6667 6.5L24 8.93333L18.3334 6.5L15.1834 11.8167L9.16669 13.1667L9.73335 19.3333L5.66669 24L9.73335 28.65L9.16669 34.8167L15.1834 36.1833L18.3334 41.5L24 39.05L29.6667 41.4833L32.8167 36.1667L38.8334 34.8L38.2667 28.65L42.3334 24ZM19.6334 30.6833L15.6667 26.6833C15.0167 26.0333 15.0167 24.9833 15.6667 24.3333L15.7834 24.2167C16.4334 23.5667 17.5 23.5667 18.15 24.2167L20.8334 26.9167L29.4167 18.3167C30.0667 17.6667 31.1334 17.6667 31.7834 18.3167L31.9 18.4333C32.55 19.0833 32.55 20.1333 31.9 20.7833L22.0334 30.6833C21.35 31.3333 20.3 31.3333 19.6334 30.6833Z" fill="#FCFCFC"/>
</svg>
