<svg width="48" height="48" viewBox="0 0 48 48" fill="none" xmlns="http://www.w3.org/2000/svg">
<rect opacity="0.1" width="48" height="48" rx="12" fill="#2E6EDF"/>
<path d="M34.44 18L31.4134 14.9734C31.5067 14.4134 31.6534 13.8934 31.84 13.44C31.9867 13.0934 32.04 12.6934 31.96 12.28C31.7867 11.32 30.8534 10.6534 29.8667 10.6667C27.7467 10.7067 25.8667 11.7467 24.6667 13.3334H18C13.9467 13.3334 10.6667 16.6134 10.6667 20.6667C10.6667 23.6667 12.4934 30.64 13.44 34.0534C13.76 35.2 14.8134 36 16.0134 36H18.6667C20.1334 36 21.3334 34.8 21.3334 33.3334H24C24 34.8 25.2 36 26.6667 36H29.3467C30.52 36 31.56 35.2267 31.9067 34.0934L33.5734 28.5467L36.4267 27.5867C36.9734 27.4 37.3334 26.8934 37.3334 26.32V19.3334C37.3334 18.6 36.7334 18 36 18H34.44ZM24 20H20C19.2667 20 18.6667 19.4 18.6667 18.6667C18.6667 17.9334 19.2667 17.3334 20 17.3334H24C24.7334 17.3334 25.3334 17.9334 25.3334 18.6667C25.3334 19.4 24.7334 20 24 20ZM29.3334 22.6667C28.6 22.6667 28 22.0667 28 21.3334C28 20.6 28.6 20 29.3334 20C30.0667 20 30.6667 20.6 30.6667 21.3334C30.6667 22.0667 30.0667 22.6667 29.3334 22.6667Z" fill="#2E6EDF"/>
</svg>
