<svg width="48" height="48" viewBox="0 0 48 48" fill="none" xmlns="http://www.w3.org/2000/svg">
<rect opacity="0.2" width="48" height="48" rx="12" fill="#FCFCFC"/>
<path d="M24 25.25C26.7167 25.25 29.1167 25.9 31.0667 26.75C32.8667 27.55 34 29.35 34 31.3V32.3333C34 33.25 33.25 34 32.3333 34H15.6667C14.75 34 14 33.25 14 32.3333V31.3167C14 29.35 15.1333 27.55 16.9333 26.7667C18.8833 25.9 21.2833 25.25 24 25.25ZM10.6667 25.6667C12.5 25.6667 14 24.1667 14 22.3333C14 20.5 12.5 19 10.6667 19C8.83333 19 7.33333 20.5 7.33333 22.3333C7.33333 24.1667 8.83333 25.6667 10.6667 25.6667ZM12.55 27.5C11.9333 27.4 11.3167 27.3333 10.6667 27.3333C9.01667 27.3333 7.45 27.6833 6.03333 28.3C4.8 28.8333 4 30.0333 4 31.3833V32.3333C4 33.25 4.75 34 5.66667 34H11.5V31.3167C11.5 29.9333 11.8833 28.6333 12.55 27.5ZM37.3333 25.6667C39.1667 25.6667 40.6667 24.1667 40.6667 22.3333C40.6667 20.5 39.1667 19 37.3333 19C35.5 19 34 20.5 34 22.3333C34 24.1667 35.5 25.6667 37.3333 25.6667ZM44 31.3833C44 30.0333 43.2 28.8333 41.9667 28.3C40.55 27.6833 38.9833 27.3333 37.3333 27.3333C36.6833 27.3333 36.0667 27.4 35.45 27.5C36.1167 28.6333 36.5 29.9333 36.5 31.3167V34H42.3333C43.25 34 44 33.25 44 32.3333V31.3833ZM24 14C26.7667 14 29 16.2333 29 19C29 21.7667 26.7667 24 24 24C21.2333 24 19 21.7667 19 19C19 16.2333 21.2333 14 24 14Z" fill="#FCFCFC"/>
</svg>
