<svg width="48" height="48" viewBox="0 0 48 48" fill="none" xmlns="http://www.w3.org/2000/svg">
<rect opacity="0.1" width="48" height="48" rx="12" fill="#2E6EDF"/>
<path d="M24 34.6668L22.8533 33.5202C21.28 31.9468 21.2933 29.3868 22.88 27.8402L24 26.7468C23.48 26.6935 23.0933 26.6668 22.6667 26.6668C19.1067 26.6668 12 28.4535 12 32.0002V34.6668H24ZM22.6667 24.0002C25.6133 24.0002 28 21.6135 28 18.6668C28 15.7202 25.6133 13.3335 22.6667 13.3335C19.72 13.3335 17.3333 15.7202 17.3333 18.6668C17.3333 21.6135 19.72 24.0002 22.6667 24.0002Z" fill="#2E6EDF"/>
<path d="M29.5733 34.3733C29.0533 34.8933 28.2 34.8933 27.68 34.3733L24.92 31.5866C24.4133 31.0666 24.4133 30.24 24.92 29.7333L24.9333 29.72C25.4533 29.2 26.2933 29.2 26.8 29.72L28.6266 31.5466L34.5333 25.6C35.0533 25.08 35.8933 25.08 36.4133 25.6L36.4266 25.6133C36.9333 26.1333 36.9333 26.96 36.4266 27.4666L29.5733 34.3733Z" fill="#2E6EDF"/>
</svg>
