<?xml version="1.0" encoding="utf-8"?>
<!-- Generator: Adobe Illustrator 26.0.2, SVG Export Plug-In . SVG Version: 6.00 Build 0)  -->
<svg version="1.1" id="Layer_1" xmlns="http://www.w3.org/2000/svg" xmlns:xlink="http://www.w3.org/1999/xlink" x="0px" y="0px"
	 viewBox="0 0 1106.3 759" style="enable-background:new 0 0 1106.3 759;" xml:space="preserve">
<style type="text/css">
	.st0{fill:#EDEDED;}
	.st1{fill:#E2E2E2;}
	.st2{fill:#D0D0D0;}
	.st3{fill:#C154FD;}
	.st4{opacity:0.52;fill:#C154FD;enable-background:new    ;}
	.st5{fill:url(#SVGID_1_);}
	.st6{opacity:0.37;fill:#DB0E4D;enable-background:new    ;}
	.st7{fill:url(#SVGID_00000095303140292135268630000000642456944341712781_);}
	.st8{opacity:0.4;fill:#004AB4;enable-background:new    ;}
	.st9{fill:#FFC500;}
	.st10{opacity:0.75;fill:#FFC500;enable-background:new    ;}
	.st11{fill:#FF8338;}
	.st12{fill:#1E1E1E;}
	.st13{fill:url(#SVGID_00000180344875771564124500000014075933080607041417_);}
	.st14{fill:#7B7BF9;}
	.st15{fill:#D4D4D4;}
	.st16{fill:#FF8438;}
	.st17{fill:#DE1250;}
	.st18{fill:#833C31;}
	.st19{fill:url(#SVGID_00000147899410771035487630000012902755594804616591_);}
</style>
<g>
	<ellipse class="st0" cx="553.2" cy="747.9" rx="553.2" ry="11.1"/>
	<rect x="578.9" y="290.3" class="st1" width="372.1" height="457.6"/>
	<rect x="831.1" y="290.3" class="st2" width="119.9" height="457.6"/>
	<rect x="459.1" y="377.6" class="st3" width="372.1" height="370.3"/>
	<path class="st4" d="M536.8,377.6l5.1,11.7L510,421.5c-2.9,2.5-5.8,40.3-5.8,40.3l17,18.3l24.5-5.4c2.5-9.1-35-9-30.3-16.2
		c7.2-11,35.2-40.5,50.3-56.1c5.8-6,7.2-15.1,3.3-22.6l-1.1-2.2H536.8z"/>
	<rect x="711.3" y="377.7" class="st3" width="119.9" height="370.3"/>
	
		<linearGradient id="SVGID_1_" gradientUnits="userSpaceOnUse" x1="711.41" y1="152.025" x2="339.33" y2="152.025" gradientTransform="matrix(1 0 0 -1 0 762)">
		<stop  offset="0" style="stop-color:#FF1D4B"/>
		<stop  offset="0.17" style="stop-color:#F52164"/>
		<stop  offset="0.54" style="stop-color:#DB2DA4"/>
		<stop  offset="1" style="stop-color:#B83DFD"/>
	</linearGradient>
	<rect x="339.3" y="472" class="st5" width="372.1" height="275.9"/>
	<path class="st4" d="M384,472h-17.8l-7.2,6c0,0-13.9,15.8-14.3,16.2s13.7,21.9,17.7,26.2c2.3,2.5,2.1-4.4,1.3-12.2
		c-1.2-12,8-23.9,16.4-32.6L384,472z"/>
	<rect x="591.5" y="472.2" class="st6" width="119.9" height="275.8"/>
	
		<linearGradient id="SVGID_00000086693752882927777830000001530043943746049971_" gradientUnits="userSpaceOnUse" x1="102.11" y1="105.95" x2="483.35" y2="105.95" gradientTransform="matrix(1 0 0 -1 0 762)">
		<stop  offset="0" style="stop-color:#1C48BF"/>
		<stop  offset="1" style="stop-color:#B93DFD"/>
	</linearGradient>
	
		<rect x="219.6" y="564.2" style="fill:url(#SVGID_00000086693752882927777830000001530043943746049971_);" width="372.1" height="183.8"/>
	<rect x="471.7" y="564.3" class="st8" width="119.9" height="183.7"/>
	<rect x="99.8" y="658.2" class="st9" width="372.1" height="89.7"/>
	<rect x="351.9" y="658.3" class="st10" width="119.9" height="89.7"/>
	<path class="st11" d="M698.4,260.3v16.2c0,0,7.7,4.1,14.1-1v-15.1C712.5,260.4,706.8,253.5,698.4,260.3z"/>
	<path class="st11" d="M762.5,271.4l-7.2-10.7c0,0-1.9-5.4,4.7-9.1c0,0,5.7-2.9,8.7,2.2s7.3,14.9,7.3,14.9s0.3,3-4.4,5.8
		S762.5,271.4,762.5,271.4z"/>
	<path class="st12" d="M820.1,128.4l7,5.7c0,0,1.6,1.2,2.5,0.1"/>
	<path class="st11" d="M805.3,119.4c0,0,6.4,3.7,8.9,5.3s11.2,7.8,18.3,10.9c0,0,3.8-1,5.6-0.8c0.8,0.1,0.9,1.2,0.1,0.2
		c-0.4-0.4-0.9-0.7-1.5-0.8c0,0,3.7,1,4.5-0.4c0.2-0.5,0.1-1.1-0.3-1.4c-0.5-0.3,0.8-0.2,1-1.1s-0.3-1.6-2.8-2c0,0,0.9-1.1,0.6-2
		s-1.1-0.9-4.2-2s-3.5-1.4-7.8-4.2c-2-2.2-4.2-4.2-6.6-6c-3.6-2.6-10.9-4.5-10.9-4.5"/>
	<g>
		<path class="st12" d="M837.5,134.8C837.5,134.8,837.4,134.8,837.5,134.8c-8.5-2-12.8-5.6-13-5.8c-0.2-0.1-0.2-0.4,0-0.5
			c0.1-0.2,0.4-0.2,0.5,0c0,0,4.3,3.6,12.6,5.6c0.2,0,0.3,0.2,0.3,0.4C837.8,134.7,837.6,134.8,837.5,134.8z"/>
	</g>
	<g>
		<path class="st12" d="M841,132.6C841,132.6,841,132.6,841,132.6c-7.8-0.5-15.9-5.5-16-5.5c-0.2-0.1-0.2-0.3-0.1-0.5
			c0.1-0.2,0.3-0.2,0.5-0.1c0.1,0,8,5,15.6,5.4c0.2,0,0.4,0.2,0.3,0.4C841.4,132.4,841.2,132.6,841,132.6z"/>
	</g>
	<g>
		<path class="st12" d="M839,129.6c-5.3,0-13.2-5-13.5-5.2c-0.2-0.1-0.2-0.3-0.1-0.5c0.1-0.2,0.3-0.2,0.5-0.1
			c0.1,0.1,8,5.1,13.1,5.1c0.1,0,0.1,0,0.2,0c0.2,0,0.4,0.2,0.4,0.4c0,0.2-0.2,0.4-0.4,0.4C839.2,129.6,839.1,129.6,839,129.6z"/>
	</g>
	<path class="st12" d="M808.8,121.5c1.7-3.4,2.3-7.1,2-10.8l-2.1-0.8l-5.3,8.6L808.8,121.5z"/>
	<path class="st12" d="M694.3,264.4c-0.5-0.1-0.9-0.6-1-1.2c-0.4-4.6-3.6-26.1-10.2-48.2c-8.2-27.3-12.9-32.9-9.2-42.2
		c2.7-6.9,17.4-21.6,30.9-34.9s24.1-24.5,24.1-24.5l27.3-23.2l14.7,11.1c0,0,14,10-1.9,39.8c-13.7,25.7-20.1,37.2-22.2,40.8
		c-0.5,0.9-0.5,2.1,0,3c4.4,8.1,21.6,45.5,25.3,67.7c0.1,0.7-0.1,1.5-0.6,2c-1.9,2.2-7,7.2-17.9,9.7c-1.2,0.3-2.4-0.3-2.9-1.4
		c0,0-17.9-39.9-24.9-52.7c-3-5.6-8.3-13.5-8.9-23.9c-0.4-7.4,4.8-19.3,4.8-19.3l-16,15.2c-0.7,0.6-1,1.5-0.7,2.4
		c2.3,8.5,14.2,52.7,10.5,76.8c0,0.3-0.2,0.6-0.5,0.8C713.4,263.6,706.8,268.2,694.3,264.4z"/>
	<path class="st12" d="M610.3,160c0,0-3.3,2.6,0.5,10.2c4.5,9.2,8,12.6,9.7,12.2c2.7-0.8,3.5-15.6-3.1-22.6
		C614.8,157,610.3,160,610.3,160z"/>
	<path class="st11" d="M581.5,187c3.2-3.4,6.2-6.9,9-10.5c3.6-4.8,6.2-6.4,10.5-9c3.5-2.2,7-4.6,10.2-7.1c0,0,4.4-3.4,8.7,1.7
		s-1.3,9.3-1.3,9.3l-12.4,8.8c0,0-8.7,12.9-19,16.5C577.8,200,576.8,192.1,581.5,187z"/>
	
		<linearGradient id="SVGID_00000141428988618735786540000011278062956377725827_" gradientUnits="userSpaceOnUse" x1="610.26" y1="645.2355" x2="809.8544" y2="645.2355" gradientTransform="matrix(1 0 0 -1 0 762)">
		<stop  offset="0" style="stop-color:#F9215A"/>
		<stop  offset="1" style="stop-color:#BE3AEF"/>
	</linearGradient>
	<path style="fill:url(#SVGID_00000141428988618735786540000011278062956377725827_);" d="M610.3,160c0,0,32-25.1,35.7-29.4
		c3.5-4.1,15.4-26.7,18.7-39.1s6.6-18,17.6-26.2s21.8-18.7,40.1-12c16.5,6,39.5,21.8,45.7,25.7c6.4,4.2,37.9,27.4,41.6,29.9
		c0.2,0.1,0.3,0.4,0.3,0.7c-0.4,1.9-2,9.1-10.3,15.8c-0.2,0.2-0.6,0.2-0.8,0c-3.5-2.7-26.9-20.2-41.1-29.4c0,0,0.7,4-4.4,10.7
		c-7.1,9.2-20.7,16.5-35.7,19.5c-1.7,0.4-3.3-0.7-3.6-2.4c-0.1-0.3-0.1-0.6-0.1-0.8v-0.1c0.1-0.6-0.1-1.4-0.2-2.8
		c-0.2-3.5-3.7-8.2-6.9-9.5c-4-1.7-13.4,0.1-19.5-7.5c0,0-10.2,24.3-23.6,39.3c-12.3,13.8-37.6,35.5-42.1,39.3
		c-0.2,0.2-0.5,0.4-0.8,0.6l-0.2,0.1c0,0,1.3-0.2,1.5-3.9C622.6,171.1,614.5,156.8,610.3,160z"/>
	<path class="st12" d="M687.7,103.6c-2.9-3.6-4.9-7.8-6-12.3c-0.1-0.2-0.4-0.1-0.4,0.1c0.3,4.1,1,16.8,0.3,23.3
		C681.7,114.7,687,105.7,687.7,103.6z"/>
	<g>
		<path class="st12" d="M758,97.1c-0.1,0-0.1,0-0.2-0.1c-0.1,0-6.6-4.3-18.8-11.6c-12.2-7.3-18.5-11.2-18.5-11.3
			c-0.2-0.1-0.2-0.3-0.1-0.5c0.1-0.2,0.3-0.2,0.5-0.1c0.1,0,6.3,4,18.5,11.3c12.2,7.3,18.8,11.5,18.9,11.6c0.2,0.1,0.2,0.3,0.1,0.5
			C758.2,97.1,758.1,97.1,758,97.1z"/>
	</g>
	<g>
		<path class="st14" d="M721.6,167.3c0,0-0.1,0-0.1,0c-0.2-0.1-0.3-0.3-0.2-0.5c2.6-7.1,5.4-14,7.9-20c2.9-7,5.4-13,7-18
			c0.1-0.2,0.3-0.3,0.5-0.2c0.2,0.1,0.3,0.3,0.2,0.5c-1.6,5.1-4.1,11.1-7,18.1c-2.5,6.1-5.4,12.9-7.9,20
			C721.9,167.2,721.8,167.3,721.6,167.3z"/>
	</g>
	<path class="st15" d="M712.5,271.2c0.5-0.7,1.5-1.1,2.3-0.8c2.4,0.6,1.2,2.6,1,4.9c-0.1,1.7,0.1,3.3,0.6,4.9
		c2.5,3.9,0.6,8.1-0.1,9.6c-0.2,0.3-0.5,0.5-0.8,0.5H676c-0.4,0-0.8-0.3-0.9-0.7c-2.1-6.4,4.3-7.4,4.3-7.4c4.8-1,9.5-2.3,14.1-3.8
		c1.2-0.4,1.9-1.5,1.9-2.7c0,0-0.9-5,4.3-4.8c0,0,2.9,0.3,2.6,5.4c0,0,1.4,0.9,5.7,0.2c1.8-0.2,3.4-1.1,4.6-2.5L712.5,271.2z"/>
	<path class="st15" d="M744.2,290.7c-0.5,0-1-0.4-1-0.9c-0.1-1.7,0.2-5.4,3.7-6.3c4.6-1.2,9-0.8,11.8-3.9c1.7-2,3-4.4,3.7-7
		c0,0-4-3.2-0.5-5.5s7.6,0.4,8,3.5c0,0,5.3-1.9,5.1-4.2L773,262c1.7-0.6,3.6,0.4,4.2,2.1c0,0,0,0,0,0c1.2,3.2,1.2,4.4,3.3,5.7
		c2.8,1.6,4.4,4.6,4.1,7.8c-0.1,0.7-0.4,1.3-0.9,1.7l-9.2,7.7c-2.6,2.2-5.9,3.4-9.3,3.5L744.2,290.7z"/>
	<path class="st16" d="M672.7,56.2c0,0,5.4,6.3,6.2,11.5s7.2,7.2,12.9,1.9s3.1-13.3,3.1-13.3s-6.7-8.7-8.5-11.7s-6.5-5.4-10.9-0.7
		S672.7,56.2,672.7,56.2z"/>
	<path class="st12" d="M677.6,51.1c0,0,1.4,4.6-0.8,11.3c-1.2-2.2-2.6-4.2-4.3-6L677.6,51.1z"/>
	<path class="st16" d="M653.6,31.6c-1.1,3.6-1.4,7.3-0.8,11c0.6,3.8,1.5,9.5,2.4,11.9c2.2,6.2,7.5,10.9,15,7.1
		c4.5-2.3,8.4-9,10.8-14c2.6-5.3,3.3-11.4,1.8-17.2c-1.2-4.5-3.8-8.9-9.3-9.9C663.5,18.8,656.4,22.8,653.6,31.6z"/>
	<path class="st9" d="M652.5,40.1c0,0,6.2,1.7,11.2-7.9c1.8,2,4.6,2.6,7,1.6c0,0,1.3,5.6,6.8,2.7c0,0-0.3,9.7,10.5,10.8
		c0,0,4-12.4-1.4-21.3c-3.7-6.1-8.8-8-15.4-8.4C664.2,17,650.5,23,652.5,40.1z"/>
	<path class="st16" d="M675.1,38.5c0,0-1.1-4.6,2.6-5.8s4.6,6.1,2.5,9.1S675.4,40.8,675.1,38.5z"/>
	<g>
		<path class="st12" d="M677.7,44c-0.2,0-0.3-0.1-0.4-0.3c0-0.2,0.1-0.4,0.3-0.4c0.6-0.1,1.1-0.3,1.6-0.6c0.2-0.1,0.4,0,0.5,0.2
			s0,0.4-0.2,0.5C679,43.6,678.4,43.8,677.7,44C677.8,44,677.8,44,677.7,44z"/>
	</g>
	<path class="st12" d="M680,19.5c-2.7-1.3-5.7-2-8.7-2.1c-2.7-0.1-5.3,0.5-7.7,1.5C665.4,20.1,671,22.5,680,19.5z"/>
	<circle class="st9" cx="666.1" cy="10.4" r="10.4"/>
	<g>
		<path class="st12" d="M713.9,123C713.9,123,713.9,123,713.9,123c-0.3-0.1-0.4-0.3-0.4-0.5l0.7-2.6c0.1-0.2,0.3-0.3,0.5-0.3
			c0.2,0.1,0.3,0.3,0.3,0.5l-0.7,2.6C714.3,122.9,714.1,123,713.9,123z"/>
	</g>
	<path class="st12" d="M784.6,277.6c0.1-0.6,0.1-1.2,0-1.8l-11.1,9.3c-2.8,2.3-6.3,3.6-10,3.6l-20.2-0.1l0.1,1.6
		c0.2,0.3,0.5,0.4,0.8,0.5l21-0.2c3.4,0,6.7-1.3,9.3-3.5l9.2-7.7C784.2,278.9,784.5,278.3,784.6,277.6z"/>
	<path class="st12" d="M715.6,290.2c0.4,0,0.7-0.2,0.8-0.5c0.2-0.5,0.4-0.9,0.6-1.4h-0.2h-41.9h-0.1c0.1,0.4,0.2,0.8,0.3,1.2
		c0.1,0.4,0.5,0.6,0.9,0.7L715.6,290.2z"/>
	<g>
		<path class="st12" d="M762.4,273c-0.2,0-0.3-0.1-0.4-0.2c-0.1-0.2,0-0.4,0.2-0.5c0.9-0.3,1.9-0.5,2.9-0.6c0.2,0,0.4,0.1,0.4,0.3
			c0,0.2-0.1,0.4-0.3,0.4c-0.9,0.1-1.8,0.3-2.7,0.6C762.5,272.9,762.4,273,762.4,273z"/>
	</g>
	<path class="st17" d="M357.7,484.1c0,0,3.5-0.4-0.5,5.3c0,6,1,11.9,2.9,17.5c3.1,8.3,6.2,20.1,1.2,22.8c0,0-7.5,2.3-16.4-17
		c0,0-0.4-2.7-5.6-8.9s-7.3-8.2-7.5-13.4c0-0.3-0.1-6.4,4.7-8s7.3-2.3,10.7-5.5c0,0,0.8-1,1.9,0.2"/>
	<path class="st17" d="M510.4,454.7c0,0,0.8-1.8,2.3-1.3c0.8,0.3,1.3,0.9,1.4,1.7c0,0.4,0,0.8,0,1.2l21,7.4c0,0,5.2,1.7,5.9,3.6
		c0.5,1.5,0.4,3.1-0.3,4.5l-47.1,0c-1.8-5.2,0.2-7.6,1.9-11c1.1-2.1,1.9-4.3,2.6-6.6"/>
	<path class="st18" d="M566.7,206.8c0,0,5.8-7.3,6.8-9.8s1.7-7.2,5-10.3c3.8-3.6,6.9-6.6,9.4-6c0,0-3.4,4-5.9,7.2
		c-0.4,0.5-0.5,1.2-0.3,1.9c0.4,0.9,1.5,1.5,4.6-0.7c2.8-2,5.4-4.2,7.8-6.8c0.6,1.4,0.9,3,0.7,4.6c0.6,1.4,0.7,2.9,0.3,4.4
		c0,0,0.9,1.9-3,6.3c-1.8,2-6.5,5.9-9.6,10.2c-3.9,5.3-8.7,12.2-8.7,12.2L566.7,206.8z"/>
	<g>
		<path class="st12" d="M586.2,194.6c-0.1,0-0.3-0.1-0.3-0.2c-0.1-0.2,0-0.4,0.1-0.5c3.2-1.9,6-4.2,8.4-7c0.1-0.2,0.4-0.2,0.5,0
			c0.2,0.1,0.2,0.4,0,0.5c-2.4,2.9-5.3,5.3-8.6,7.2C586.3,194.6,586.2,194.6,586.2,194.6z"/>
	</g>
	<g>
		<path class="st12" d="M587.9,197.5c-0.1,0-0.3-0.1-0.3-0.2c-0.1-0.2,0-0.4,0.1-0.5c0,0,4.6-2.7,6.9-5.6c0.1-0.2,0.4-0.2,0.5-0.1
			c0.2,0.1,0.2,0.4,0.1,0.5c-2.4,3-6.9,5.7-7.1,5.8C588.1,197.5,588,197.5,587.9,197.5z"/>
	</g>
	<path class="st15" d="M420.5,317.1c0,0-8-0.7-11.9,14c-1.5,5.9-1.9,14.3-2.5,25.6c-1.3,26.9-6.9,45.3-11.6,51.8s-22,24.3-32.1,41.4
		c-5.1,8.7-9.6,17.7-13.3,27.1c0,0,5.2,5.4,9.5,8c0,0,48.2-48.8,55.4-56.7s14.1-25.1,21.4-45.5l7.3-20.5c0,0,28,6.9,71,12.6
		c0,0-13.2,34.1-15.3,67.4c-0.2,4,0.3,7.6-0.3,11.7c0,0,7.1,1.9,12.2,0.6c0,0,20.7-53.9,27.3-70.9c7.2-18.5,6.4-23.8-11.5-32.1
		S457,325.6,457,325.6L420.5,317.1z"/>
	<path class="st12" d="M443.6,329.2l1.7-6.3l-24.8-5.7c0,0-6.6-0.6-10.7,10.3C411.5,328.2,423.3,332.5,443.6,329.2z"/>
	<path class="st18" d="M372.9,341.1c-2,2-4.1,3.8-6.2,5.5c-5.4,4.7-10.3,9.8-14.6,15.4c-3.2,4.4-1.8,5.8-1.8,5.8s-1,2,0.1,3
		c0.8,0.7,2.6-0.5,2.6-0.5s-1.2,1.6,0.3,2.5c1.7,1.1,4.6-2.9,6.6-5.4c0,0-2.1,2.9-0.3,4s4.9-3.7,8.8-7.7s9.4-9.2,11.5-14.6
		S379,336,379,336L372.9,341.1z"/>
	<g>
		<path class="st12" d="M352.9,370.8c-0.1,0-0.1,0-0.2-0.1c-0.2-0.1-0.2-0.3-0.1-0.5c2.7-4.1,5.7-8.1,8.8-11.9
			c0.1-0.2,0.4-0.2,0.5-0.1c0.2,0.1,0.2,0.4,0.1,0.5c-3.1,3.8-6,7.7-8.7,11.8C353.1,370.7,353,370.8,352.9,370.8z"/>
	</g>
	<g>
		<path class="st12" d="M350.2,368.2c-0.1,0-0.1,0-0.2-0.1c-0.2-0.1-0.2-0.3-0.1-0.5c0.2-0.3,5.5-8,8.9-11.2c0.1-0.1,0.4-0.1,0.5,0
			c0.1,0.1,0.1,0.4,0,0.5c-3.4,3.2-8.8,11-8.8,11.1C350.5,368.2,350.4,368.2,350.2,368.2z"/>
	</g>
	<g>
		<path class="st12" d="M359.6,368.2c-0.1,0-0.2,0-0.3-0.1c-0.2-0.1-0.2-0.4,0-0.5c0,0,2.8-3.1,6.5-8c0.1-0.2,0.4-0.2,0.5-0.1
			c0.2,0.1,0.2,0.4,0.1,0.5c-3.7,4.9-6.5,8-6.5,8C359.8,368.2,359.7,368.2,359.6,368.2z"/>
	</g>
	
		<linearGradient id="SVGID_00000073679972939016862360000016257546083099245214_" gradientUnits="userSpaceOnUse" x1="475.0122" y1="557.1188" x2="475.0122" y2="411.9248" gradientTransform="matrix(1 0 0 -1 0 762)">
		<stop  offset="3.000000e-02" style="stop-color:#FFC401"/>
		<stop  offset="1" style="stop-color:#FD2B50"/>
	</linearGradient>
	<path style="fill:url(#SVGID_00000073679972939016862360000016257546083099245214_);" d="M568.5,205c-0.4-0.2-1-0.1-1.3,0.2
		c-4.4,4.2-26.1,32.4-38.1,39c-10.8,6-32.7,9.3-44.2,11.3s-30.6-1.2-30.6-1.2l-9.9,10.6c-5.9-0.8-9.7,5.6-9.7,5.6s-3,2.8-22.8,26.3
		c-18.2,21.6-30.3,33.8-38.8,41.6c-0.2,0.2-0.3,0.5-0.3,0.8c0.5,1.9,2.8,9,9.9,10.9c0.2,0.1,0.5,0,0.6-0.1
		c2.2-1.8,18.2-17.5,31.5-30.4c6.5,5.3,21.2,13.5,45.9,7.7c0,0,4.8-1.4,5.7-4.5c0.6-1.8,1-3.7,1.2-5.6c2.3-4.1,5.3-7.7,8.8-10.7
		c6.3-5.6,7.6-13.5,7.7-21.2c0,0,19.5-6.7,33.2-11.6c10.4-3.7,16.9-6.7,26.6-15c9.1-7.7,28.2-33.3,32.9-41.8
		c0.2-0.2,0.3-0.5,0.3-0.9C577.1,214.4,576.1,208.8,568.5,205z"/>
	<g>
		<path class="st12" d="M480.5,286.7c-0.2,0-0.3-0.1-0.4-0.3c-0.1-0.2,0.1-0.4,0.3-0.5l3.7-1c0.2-0.1,0.4,0.1,0.5,0.3
			c0.1,0.2-0.1,0.4-0.3,0.5L480.5,286.7C480.6,286.7,480.5,286.7,480.5,286.7z"/>
	</g>
	<g>
		<path class="st12" d="M467.7,317.6c-0.2,0-0.4-0.2-0.4-0.4c0,0-0.1-2.4-0.2-3.3c0-0.2,0.1-0.4,0.3-0.4c0.2,0,0.4,0.1,0.4,0.3
			c0.1,0.9,0.2,3.3,0.2,3.3C468.1,317.4,467.9,317.5,467.7,317.6C467.7,317.6,467.7,317.6,467.7,317.6z"/>
	</g>
	<g>
		<path class="st12" d="M415.5,320.9c-0.1,0-0.2,0-0.2-0.1c-0.2-0.1-0.3-0.3-0.5-0.4c-1.3-1-3-2.3-3.1-3.8c-0.1-1.8,1.2-3.1,4.1-4.3
			c5.9-2.3,10.3-8,15.3-19.8c1.8-4.2,3.4-8.6,4.6-13c0.1-0.2,0.3-0.3,0.5-0.3c0.2,0.1,0.3,0.3,0.3,0.5c-1.2,4.5-2.7,8.9-4.6,13.1
			c-5.1,12-9.7,17.9-15.7,20.2c-3.4,1.3-3.7,2.6-3.7,3.5c0.1,1.2,1.6,2.4,2.8,3.3c0.2,0.2,0.4,0.3,0.6,0.4c0.2,0.1,0.2,0.4,0.1,0.5
			C415.7,320.8,415.6,320.9,415.5,320.9z"/>
	</g>
	<g>
		<path class="st12" d="M442.7,362.8c0,0-0.1,0-0.1,0c-13.7-4.5-17.3-12-17.5-12.3c-0.1-0.2,0-0.4,0.2-0.5c0.2-0.1,0.4,0,0.5,0.2
			c0,0.1,3.6,7.5,17,11.9c0.2,0.1,0.3,0.3,0.2,0.5C443,362.7,442.9,362.8,442.7,362.8z"/>
	</g>
	<path class="st18" d="M479.9,243c0,0,9.3-1.2,11.4-6.6s-4.4-11.8-7.1-15.2c-1-1.2-2.1-2.5-3.1-3.7c-3.5-4.1-8.9-6.2-14.3-5.4
		c-4.5,0.7-9.1,3.6-11.1,11.5C451.4,241.3,479.9,243,479.9,243z"/>
	<path class="st12" d="M471.1,225c5-1.3,8.8-5.4,9.8-10.4c1.8-8.7-2.8-16.9-9.5-18.3s-12.5,3.4-15.6,13.5c0,0-10.5,1.5-13,9.6
		s1.9,13,3.3,16.7s-0.7,7.6-4.1,10.3s-22.2,12-17.4,22.2s15.2,4.8,15.2,4.8s8.5,9.4,19.9-1.6c8.4-8.2,10.8-12.8,10.8-12.8l14.5-3.5
		c0,0,5-9.6-10.6-25.9L471.1,225z"/>
	<path class="st18" d="M474.5,224.8c0,0-3.2-3.2-5.4-0.8c-1.6,1.8,0.2,5.9,3.2,7.1c2.1,0.9,4.9-1.1,4.3-3.3
		C476.2,226.7,475.5,225.6,474.5,224.8z"/>
	<g>
		<path class="st12" d="M475.4,231.7c-0.1,0-0.2-0.1-0.3-0.2c-0.1-0.2-0.1-0.4,0.1-0.5c0.6-0.4,1-0.8,1.4-1.4
			c0.1-0.2,0.3-0.2,0.5-0.1c0.2,0.1,0.2,0.3,0.1,0.5c-0.4,0.6-1,1.2-1.6,1.6C475.5,231.6,475.4,231.7,475.4,231.7z"/>
	</g>
	<path class="st18" d="M355.6,462.6c-4.1,8.3-6.4,14.5-6.4,14.5s4.4,6.3,9.5,8.1c0,0,4.6-4.8,11.3-11.5
		C361.2,469.9,356.9,464.5,355.6,462.6z"/>
	<path class="st18" d="M498.5,440.9c-0.3,4-0.2,9-0.4,13.2c0,0,7.1,2,12.2,0.8c0,0,1.6-4.6,4.3-11.4
		C507,445,499.7,441.5,498.5,440.9z"/>
	<g>
		<path class="st12" d="M513.7,375.4c-0.1,0-0.1,0-0.2-0.1c-0.2-0.1-0.2-0.3-0.1-0.5c0.8-1.1,1.7-2.2,2.7-3.1c0.2-0.1,0.4-0.1,0.5,0
			s0.1,0.4,0,0.5c-1,0.9-1.8,1.9-2.6,3C513.9,375.3,513.8,375.4,513.7,375.4z"/>
	</g>
	<path class="st12" d="M352.3,512.2c-7.9-10-2.8-13.4-9.3-23.4c-3.6-5.5-6.8-5.8-8.9-5c-2.4,2.4-2.3,6.2-2.3,6.5
		c0.2,5.3,2.3,7.2,7.5,13.4s5.6,8.9,5.6,8.9c7.8,16.9,14.5,17.3,16.1,17.1C365.1,527.6,359.9,521.7,352.3,512.2z"/>
	<path class="st12" d="M493.2,470.1c0.1,0.6,0.3,1.1,0.5,1.6l47.1,0c0.3-0.5,0.4-1.1,0.5-1.6c0,0,0,0,0,0h-48L493.2,470.1z"/>
	<g>
		<path class="st12" d="M433.4,282.9C433.4,282.9,433.4,282.9,433.4,282.9c-0.2,0-0.4-0.2-0.4-0.4l0.3-2.8c0-0.2,0.2-0.4,0.4-0.3
			c0.2,0,0.4,0.2,0.3,0.4l-0.3,2.8C433.8,282.8,433.6,282.9,433.4,282.9z"/>
	</g>
	<g>
		<path class="st12" d="M593.3,183.1c-0.1,0-0.3-0.1-0.3-0.2c-0.1-0.2,0-0.4,0.1-0.5c0.1,0,5.8-3.2,7.1-6.1c0.1-0.2,0.3-0.3,0.5-0.2
			c0.2,0.1,0.3,0.3,0.2,0.5c-1.4,3.2-7.2,6.3-7.5,6.5C593.5,183,593.4,183.1,593.3,183.1z"/>
	</g>
	<path class="st17" d="M346.9,477.2c0,0,1.2-1.7,2.2-1.1c1.8,0.9,1.9,3.4,2.5,4l-2.2-0.8L346.9,477.2z"/>
</g>
</svg>
