<svg width="48" height="48" viewBox="0 0 48 48" fill="none" xmlns="http://www.w3.org/2000/svg">
<rect opacity="0.1" width="48" height="48" rx="12" fill="#66CC80"/>
<path d="M21.3333 11.9999H26.6667C27.4 11.9999 28 11.3999 28 10.6666C28 9.93325 27.4 9.33325 26.6667 9.33325H21.3333C20.6 9.33325 20 9.93325 20 10.6666C20 11.3999 20.6 11.9999 21.3333 11.9999Z" fill="#66CC80"/>
<path d="M33.3735 17.8533L34.3735 16.8533C34.8801 16.3466 34.8935 15.5066 34.3735 14.9866L34.3601 14.9733C33.8401 14.4533 33.0135 14.4666 32.4935 14.9733L31.4935 15.9733C29.4268 14.3199 26.8268 13.3333 24.0001 13.3333C17.6001 13.3333 12.1601 18.6133 12.0001 25.0133C11.8268 31.7866 17.2535 37.3333 24.0001 37.3333C30.6401 37.3333 36.0001 31.9599 36.0001 25.3333C36.0001 22.5066 35.0135 19.9066 33.3735 17.8533ZM25.3335 25.3333C25.3335 26.0666 24.7335 26.6666 24.0001 26.6666C23.2668 26.6666 22.6668 26.0666 22.6668 25.3333V19.9999C22.6668 19.2666 23.2668 18.6666 24.0001 18.6666C24.7335 18.6666 25.3335 19.2666 25.3335 19.9999V25.3333Z" fill="#66CC80"/>
</svg>
