<svg xmlns:xlink="http://www.w3.org/1999/xlink" width="83" height="26" viewBox="0 0 83 26" fill="none" xmlns="http://www.w3.org/2000/svg">
<g clip-path="url(#clip0_928_1096)" fill="none">
<path d="M13.2511 26C20.5696 26 26.5023 20.1797 26.5023 13C26.5023 5.8203 20.5696 0 13.2511 0C5.93274 0 0 5.8203 0 13C0 20.1797 5.93274 26 13.2511 26Z" fill="#FFFFFF"></path>
<path d="M20.7195 3.30914C18.597 1.73608 16.0073 0.889089 13.3472 0.897957C11.0735 0.899187 8.8448 1.51926 6.90899 2.68919C4.97318 3.85911 3.4062 5.53301 2.38239 7.52463C1.35858 9.51626 0.918092 11.7475 1.10995 13.9701C1.3018 16.1927 2.11847 18.3195 3.46908 20.1139C7.54621 18.9434 11.2613 16.7937 14.278 13.8594C17.2947 10.925 19.5176 7.29885 20.7454 3.30914" fill="#EB1933"></path>
<path d="M23.6114 6.6173C24.1451 8.29615 24.1301 10.0967 23.5685 11.7668C23.0068 13.4368 21.9267 14.8927 20.4794 15.9303C16.7693 18.6016 11.3245 18.6251 3.85522 20.894C5.845 23.3086 8.70766 24.8768 11.8468 25.272C14.986 25.6672 18.1595 24.8588 20.7062 23.0154C23.2529 21.172 24.9764 18.4357 25.5176 15.3765C26.0589 12.3173 25.376 9.17125 23.6114 6.59375" fill="#2151A1"></path>
<path d="M36.3804 9.21786C36.8775 9.22272 37.3685 9.3251 37.8245 9.51898C38.2806 9.71285 38.6925 9.99429 39.036 10.3467C39.3795 10.6992 39.6477 11.1155 39.8247 11.5712C40.0017 12.0268 40.0839 12.5126 40.0666 13C40.0896 13.4833 40.0133 13.9663 39.8422 14.4201C39.671 14.874 39.4086 15.2894 39.0704 15.6416C38.7322 15.9939 38.3252 16.2757 37.8737 16.4705C37.4222 16.6652 36.9353 16.7688 36.4421 16.7752C35.9489 16.7815 35.4595 16.6904 35.0029 16.5073C34.5463 16.3242 34.132 16.0528 33.7845 15.7094C33.4371 15.3659 33.1636 14.9574 32.9805 14.5081C32.7973 14.0588 32.7081 13.578 32.7183 13.0942C32.6951 12.1061 33.0684 11.1486 33.7579 10.4279C34.4474 9.70729 35.3978 9.28117 36.4045 9.24141L36.3804 9.21786ZM36.6455 18.6487C37.3743 18.6521 38.0965 18.5139 38.7706 18.242C39.4446 17.9702 40.0571 17.5701 40.5727 17.0648C41.6388 15.9903 42.2279 14.5455 42.2112 13.0462C42.2365 11.67 41.7462 10.3325 40.8333 9.28734C39.9204 8.24216 38.6484 7.56187 37.2583 7.37543C35.8683 7.18899 34.4568 7.50937 33.2915 8.27583C32.1261 9.04228 31.2879 10.2015 30.9357 11.5339C30.765 12.39 30.6842 13.2611 30.6946 14.1335V22.1227C30.6946 22.1854 30.72 22.2456 30.7653 22.2899C30.8105 22.3343 30.8718 22.3592 30.9357 22.3592H32.3812C32.4451 22.3592 32.5064 22.3343 32.5516 22.2899C32.5968 22.2456 32.6222 22.1854 32.6222 22.1227V17.0883C33.6088 18.0282 34.9108 18.5829 36.2844 18.6487" fill="#2151A1"></path>
<path d="M49.6325 12.527L48.187 12.4563C47.3643 12.4556 46.5481 12.5998 45.7773 12.8822V12.8115C45.886 11.979 46.2702 11.2044 46.8708 10.6067C47.4714 10.0089 48.2554 9.62101 49.1023 9.50243L49.5826 9.47886C50.4243 9.50645 51.2353 9.79617 51.898 10.3061C52.5607 10.816 53.0408 11.5196 53.2687 12.315C52.0746 12.6223 50.8315 12.7026 49.6066 12.5515L49.6325 12.527ZM55.1742 12.5506C55.0361 11.1987 54.3941 9.94455 53.3714 9.02852C52.3487 8.11249 51.0173 7.59912 49.6325 7.58686C48.8083 7.58289 47.9932 7.75489 47.2435 8.09094C46.4939 8.42699 45.8278 8.91905 45.2914 9.53295C44.755 10.1468 44.3612 10.8679 44.1373 11.646C43.9134 12.4242 43.8647 13.2408 43.9947 14.0393C44.1478 15.3938 44.8105 16.6436 45.8532 17.5442C46.8959 18.4448 48.2435 18.9314 49.6325 18.9087C49.8736 18.9087 50.1127 18.8852 50.3557 18.8616C51.1126 18.7895 51.8474 18.5706 52.5175 18.2177C53.1875 17.8647 53.7794 17.3848 54.2589 16.8057C54.2904 16.7775 54.3147 16.7425 54.3298 16.7034C54.3448 16.6643 54.3502 16.6223 54.3456 16.5807C54.3409 16.5392 54.3262 16.4993 54.3028 16.4644C54.2794 16.4295 54.2479 16.4005 54.2109 16.3798C53.7768 16.1433 52.8855 15.7202 52.8855 15.7202C52.8144 15.6667 52.7251 15.6418 52.6359 15.6505C52.5467 15.6593 52.4642 15.701 52.4053 15.7673C51.9779 16.2485 51.4309 16.6129 50.8173 16.8251C50.2038 17.0372 49.5447 17.09 48.9043 16.9781C48.2638 16.8663 47.6638 16.5937 47.1627 16.1868C46.6615 15.7799 46.2762 15.2527 46.0443 14.6564V14.6093C47.0683 14.1999 48.1977 14.1172 49.2723 14.3728C50.3546 14.5603 51.4597 14.5841 52.5493 14.4435C53.4159 14.3283 54.251 14.0472 55.0071 13.6162C55.0977 13.5652 55.1697 13.4875 55.2129 13.3942C55.2562 13.3009 55.2685 13.1966 55.2482 13.0961L55.1742 12.5506ZM69.6317 17.0196C70.8042 18.1599 72.39 18.7973 74.0411 18.7919H74.0891C77.173 18.7683 78.5465 17.1373 78.5465 15.4828C78.5465 13.2374 76.3778 12.6467 75.7276 12.4808C75.0044 12.3385 74.1611 12.1982 73.4629 12.0097C73.1018 11.9155 71.9454 11.5386 71.9454 10.6906C71.9454 9.74835 73.0019 9.27252 73.993 9.27252C74.8742 9.23832 75.7356 9.53406 76.4028 10.0998C76.4782 10.1659 76.5746 10.2043 76.6756 10.2086C76.7766 10.2129 76.876 10.1828 76.957 10.1234L77.9174 9.27535C78.0864 9.10952 78.0374 8.96818 77.8693 8.80423C76.7648 7.90051 75.3547 7.43647 73.9181 7.50395C71.6054 7.50395 69.8708 8.96912 69.8708 10.8837C69.8708 12.4205 71.1482 13.4834 73.485 13.9564L74.9304 14.239C75.8909 14.4049 76.4239 14.8986 76.3759 15.61C75.5806 17.8553 72.4487 17.0751 71.1233 15.7984H71.0992C70.9302 15.6561 70.8582 15.6562 70.6651 15.7749L69.5126 16.7171C69.3925 16.8584 69.4406 16.9536 69.5606 17.094L69.6317 17.0196ZM82.6427 8.04101C82.6427 7.97829 82.6173 7.91814 82.5721 7.87379C82.5269 7.82944 82.4656 7.80452 82.4016 7.80452H80.9523C80.8884 7.80452 80.8271 7.82944 80.7819 7.87379C80.7367 7.91814 80.7113 7.97829 80.7113 8.04101V18.2049C80.7113 18.2676 80.7367 18.3278 80.7819 18.3721C80.8271 18.4165 80.8884 18.4414 80.9523 18.4414H82.3978C82.4617 18.4414 82.5231 18.4165 82.5683 18.3721C82.6135 18.3278 82.6389 18.2676 82.6389 18.2049V8.03631" fill="#2151A1"></path>
<path d="M81.6756 6.73698C82.4076 6.73698 83.001 6.15482 83.001 5.4367C83.001 4.71857 82.4076 4.13641 81.6756 4.13641C80.9436 4.13641 80.3502 4.71857 80.3502 5.4367C80.3502 6.15482 80.9436 6.73698 81.6756 6.73698Z" fill="#2151A1"></path>
<path d="M62.4016 9.21786C62.8986 9.22272 63.3896 9.3251 63.8456 9.51898C64.3017 9.71285 64.7137 9.99429 65.0572 10.3467C65.4007 10.6992 65.6688 11.1155 65.8458 11.5712C66.0228 12.0268 66.105 12.5126 66.0877 13C66.1108 13.4833 66.0344 13.9663 65.8633 14.4201C65.6922 14.874 65.4297 15.2894 65.0915 15.6416C64.7533 15.9939 64.3463 16.2757 63.8948 16.4705C63.4433 16.6652 62.9564 16.7688 62.4632 16.7752C61.97 16.7815 61.4806 16.6904 61.024 16.5073C60.5674 16.3242 60.1531 16.0528 59.8056 15.7094C59.4582 15.3659 59.1848 14.9574 59.0016 14.5081C58.8184 14.0588 58.7292 13.578 58.7394 13.0942C58.7162 12.1061 59.0895 11.1486 59.779 10.4279C60.4685 9.70729 61.4189 9.28117 62.4256 9.24141L62.4016 9.21786ZM62.6666 18.6487C63.3954 18.6521 64.1176 18.5139 64.7917 18.242C65.4657 17.9702 66.0783 17.5701 66.5939 17.0648C67.6599 15.9903 68.249 14.5455 68.2324 13.0462C68.2576 11.67 67.7673 10.3325 66.8544 9.28734C65.9415 8.24216 64.6695 7.56187 63.2795 7.37543C61.8894 7.18899 60.4779 7.50937 59.3126 8.27583C58.1472 9.04228 57.309 10.2015 56.9568 11.5339C56.7861 12.39 56.7054 13.2611 56.7158 14.1335V22.1227C56.7158 22.1854 56.7412 22.2456 56.7864 22.2899C56.8316 22.3343 56.8929 22.3592 56.9568 22.3592H58.4023C58.4662 22.3592 58.5275 22.3343 58.5727 22.2899C58.618 22.2456 58.6434 22.1854 58.6434 22.1227V17.0883C59.6299 18.0282 60.932 18.5829 62.3055 18.6487" fill="#2151A1"></path>
</g>
<defs>
<clipPath id="clip0_928_1096">
<rect width="83" height="26" fill="white"></rect>
</clipPath>
</defs>
</svg>