<svg xmlns:xlink="http://www.w3.org/1999/xlink" width="30" height="30" xmlns="http://www.w3.org/2000/svg"><path d="M10.7775 24.2502C12.5261 24.2622 14.2597 23.9266 15.8775 23.263C17.4953 22.5993 18.9651 21.6208 20.2016 20.3843C21.4381 19.1479 22.4166 17.678 23.0802 16.0602C23.7439 14.4424 24.0795 12.7088 24.0675 10.9602C24.0675 10.7577 24.0675 10.5565 24.0537 10.3565C24.9678 9.69538 25.7568 8.87675 26.3837 7.93898C25.5314 8.31673 24.6271 8.5645 23.7013 8.67398C24.6764 8.0902 25.4063 7.17198 25.755 6.09023C24.838 6.63434 23.8349 7.01777 22.7887 7.22398C22.0846 6.4749 21.1531 5.97882 20.1386 5.81254C19.1241 5.64625 18.083 5.81903 17.1765 6.30414C16.2701 6.78924 15.5489 7.55961 15.1244 8.496C14.7 9.43238 14.5961 10.4826 14.8288 11.484C12.9724 11.3914 11.1562 10.9095 9.49801 10.0697C7.83986 9.22982 6.3768 8.05077 5.20374 6.60898C4.60637 7.63721 4.42341 8.85448 4.69211 10.0129C4.96081 11.1713 5.66097 12.1837 6.65 12.844C5.90494 12.8226 5.17601 12.622 4.525 12.259V12.3177C4.52541 13.3965 4.89909 14.4419 5.58263 15.2765C6.26617 16.1111 7.21744 16.6835 8.275 16.8965C7.58742 17.0839 6.86605 17.1113 6.16625 16.9765C6.46473 17.9046 7.0458 18.7162 7.82822 19.2978C8.61064 19.8794 9.55526 20.2019 10.53 20.2202C8.87536 21.5188 6.8321 22.2232 4.72875 22.2202C4.35691 22.2195 3.98544 22.197 3.61625 22.1527C5.75236 23.5238 8.23797 24.2511 10.7762 24.2477" fill="#CCCCCC"></path></svg>