<svg xmlns:xlink="http://www.w3.org/1999/xlink" width="30" height="30" fill="none" xmlns="http://www.w3.org/2000/svg"><g clip-path="url(#clip0_737_2343)" fill="none"><path d="M15.0013 3.92383C11.9925 3.92383 11.615 3.93758 10.4338 3.99133C9.51482 4.00968 8.60567 4.18382 7.745 4.50633C7.00889 4.79089 6.34034 5.22608 5.78219 5.78401C5.22404 6.34195 4.78859 7.01033 4.50375 7.74633C4.18063 8.60683 4.00647 9.51608 3.98875 10.4351C3.93625 11.6163 3.9225 11.9951 3.9225 15.0026C3.9225 18.0101 3.93625 18.3876 3.99 19.5688C4.00867 20.4877 4.18279 21.3968 4.505 22.2576C4.78955 22.9935 5.2246 23.6619 5.7823 24.22C6.33999 24.7781 7.00806 25.2137 7.74375 25.4988C8.60448 25.8211 9.5136 25.9953 10.4325 26.0138C11.6138 26.0676 11.9913 26.0813 15 26.0813C18.0088 26.0813 18.385 26.0676 19.5663 26.0138C20.4856 25.9953 21.3951 25.8212 22.2563 25.4988C22.9919 25.2134 23.66 24.7778 24.2179 24.2197C24.7758 23.6616 25.2112 22.9934 25.4963 22.2576C25.8172 21.3965 25.9913 20.4876 26.0113 19.5688C26.0638 18.3876 26.0788 18.0101 26.0788 15.0026C26.0788 11.9951 26.065 11.6163 26.0113 10.4351C25.9913 9.51632 25.8172 8.60743 25.4963 7.74633C25.2115 7.01049 24.7762 6.34222 24.2183 5.7843C23.6604 5.22638 22.9921 4.7911 22.2563 4.50633C21.3946 4.1841 20.4847 4.00998 19.565 3.99133C18.3838 3.93758 18.0075 3.92383 14.9975 3.92383H15.0013ZM14.0013 5.92383H15.0013C17.9588 5.92383 18.31 5.93383 19.4775 5.98758C20.1797 5.99599 20.8752 6.12495 21.5338 6.36883C22.0115 6.55327 22.4453 6.83561 22.8074 7.1977C23.1695 7.55979 23.4518 7.99363 23.6363 8.47133C23.8803 9.12982 24.0092 9.82537 24.0175 10.5276C24.07 11.6951 24.0825 12.0463 24.0825 15.0026C24.0825 17.9588 24.0713 18.3101 24.0175 19.4776C24.0092 20.1798 23.8803 20.8753 23.6363 21.5338C23.4515 22.0112 23.1691 22.4447 22.807 22.8066C22.4449 23.1684 22.0113 23.4506 21.5338 23.6351C20.8753 23.8794 20.1797 24.0083 19.4775 24.0163C18.31 24.0688 17.9588 24.0813 15.0013 24.0813C12.0438 24.0813 11.6925 24.0701 10.525 24.0163C9.82234 24.0074 9.12642 23.878 8.4675 23.6338C7.98988 23.4496 7.55608 23.1675 7.19399 22.8056C6.8319 22.4437 6.54952 22.0101 6.365 21.5326C6.12098 20.8741 5.99202 20.1785 5.98375 19.4763C5.93125 18.3088 5.92 17.9576 5.92 15.0001C5.92 12.0426 5.93 11.6926 5.98375 10.5251C5.99219 9.82289 6.12115 9.12737 6.365 8.46883C6.54944 7.99112 6.83178 7.55729 7.19387 7.1952C7.55596 6.83311 7.9898 6.55077 8.4675 6.36633C9.12631 6.12174 9.8223 5.99235 10.525 5.98383C11.5475 5.93758 11.9425 5.92383 14.0075 5.92133L14.0013 5.92383ZM20.9088 7.76383C20.646 7.76383 20.389 7.84176 20.1705 7.98776C19.952 8.13377 19.7817 8.34129 19.6811 8.58409C19.5806 8.82688 19.5543 9.09405 19.6055 9.3518C19.6568 9.60956 19.7834 9.84632 19.9692 10.0321C20.155 10.218 20.3918 10.3445 20.6495 10.3958C20.9073 10.4471 21.1744 10.4208 21.4172 10.3202C21.66 10.2196 21.8676 10.0493 22.0136 9.83079C22.1596 9.61228 22.2375 9.35538 22.2375 9.09258C22.2375 8.74017 22.0975 8.4022 21.8483 8.15301C21.5991 7.90382 21.2612 7.76383 20.9088 7.76383V7.76383ZM14.995 9.31758C13.8698 9.31733 12.7698 9.65076 11.8342 10.2757C10.8985 10.9006 10.1692 11.789 9.73839 12.8285C9.30763 13.8679 9.1948 15.0118 9.41416 16.1154C9.63352 17.219 10.1752 18.2327 10.9708 19.0284C11.7663 19.8242 12.7799 20.3661 13.8835 20.5857C14.987 20.8053 16.1309 20.6927 17.1705 20.2622C18.21 19.8316 19.0985 19.1025 19.7237 18.167C20.3488 17.2314 20.6825 16.1315 20.6825 15.0063C20.6825 13.4978 20.0833 12.051 19.0167 10.9842C17.9502 9.9174 16.5035 9.31791 14.995 9.31758V9.31758ZM14.995 11.3176C15.7253 11.3176 16.4392 11.5341 17.0464 11.9399C17.6537 12.3456 18.127 12.9223 18.4064 13.597C18.6859 14.2717 18.759 15.0142 18.6166 15.7304C18.4741 16.4467 18.1224 17.1047 17.606 17.6211C17.0896 18.1375 16.4316 18.4892 15.7154 18.6316C14.9991 18.7741 14.2567 18.701 13.5819 18.4215C12.9072 18.142 12.3305 17.6688 11.9248 17.0615C11.5191 16.4543 11.3025 15.7404 11.3025 15.0101C11.3013 14.5239 11.3962 14.0423 11.5817 13.5929C11.7671 13.1435 12.0395 12.7351 12.3831 12.3912C12.7268 12.0473 13.135 11.7747 13.5842 11.5889C14.0335 11.4032 14.5151 11.308 15.0013 11.3088L14.995 11.3176Z" fill="#CCCCCC"></path></g><defs><clipPath id="clip0_737_2343"><rect width="30.0088" height="30" fill="white"></rect></clipPath></defs></svg>