<svg xmlns:xlink="http://www.w3.org/1999/xlink" width="101" height="24" viewBox="0 0 101 24" fill="none" xmlns="http://www.w3.org/2000/svg">
<path d="M20.3849 8.0231C19.5236 8.00544 18.6675 8.16122 17.8679 8.48112C17.0684 8.80101 16.3417 9.27845 15.7314 9.88488C15.1211 10.4913 14.6398 11.2143 14.3161 12.0105C13.9924 12.8067 13.8331 13.6599 13.8477 14.5189C13.8275 15.3784 13.9832 16.2329 14.3051 17.0304C14.6271 17.8279 15.1087 18.5516 15.7205 19.1573C16.3322 19.763 17.0613 20.238 17.8633 20.5533C18.6653 20.8686 19.5233 21.0176 20.3849 20.9913C21.2497 21.0137 22.1102 20.8615 22.9145 20.5439C23.7189 20.2263 24.4506 19.7498 25.0656 19.1431C25.6806 18.5363 26.1663 17.8118 26.4934 17.0131C26.8205 16.2145 26.9824 15.3581 26.9693 14.4954C26.9841 13.6334 26.8231 12.7774 26.4963 11.9792C26.1694 11.1811 25.6834 10.4575 25.0677 9.85229C24.452 9.24708 23.7195 8.77288 22.9145 8.45845C22.1096 8.14402 21.249 7.99591 20.3849 8.0231ZM20.4096 18.3108C19.918 18.3128 19.4313 18.2147 18.9791 18.0225C18.5269 17.8303 18.1189 17.5481 17.78 17.193C17.441 16.838 17.1784 16.4177 17.008 15.9579C16.8377 15.4981 16.7633 15.0084 16.7895 14.5189C16.7582 14.0292 16.8281 13.5382 16.9947 13.0764C17.1614 12.6147 17.4212 12.1919 17.7582 11.8343C18.0952 11.4767 18.5022 11.1918 18.954 10.9973C19.4058 10.8028 19.8928 10.7028 20.3849 10.7035C20.8795 10.7017 21.3692 10.8005 21.8242 10.9939C22.2791 11.1874 22.6897 11.4714 23.0308 11.8285C23.3719 12.1857 23.6363 12.6085 23.8079 13.0711C23.9795 13.5337 24.0546 14.0264 24.0286 14.5189C24.0547 15.0083 23.9804 15.4979 23.8101 15.9577C23.6399 16.4174 23.3773 16.8376 23.0385 17.1926C22.6996 17.5476 22.2917 17.8299 21.8397 18.0222C21.3876 18.2145 20.901 18.3127 20.4096 18.3108ZM27.7698 10.8489H29.5916V20.7508H32.5066V8.26464H27.7709L27.7698 10.8489ZM6.51216 10.7035C7.22891 10.6956 7.92891 10.9197 8.5072 11.342C9.08549 11.7644 9.51091 12.3624 9.71967 13.0462H12.805C12.5446 11.5956 11.7667 10.288 10.615 9.36474C9.46325 8.44148 8.01548 7.96494 6.53895 8.0231C5.67752 8.00544 4.82137 8.16125 4.02172 8.48121C3.22207 8.80117 2.49535 9.27871 1.88505 9.88525C1.27475 10.4918 0.793405 11.2149 0.469812 12.0112C0.14622 12.8076 -0.0129691 13.6609 0.00177013 14.52C-0.0185943 15.3795 0.136936 16.2341 0.458862 17.0317C0.780788 17.8292 1.26235 18.553 1.87415 19.1587C2.48594 19.7644 3.21513 20.2394 4.01717 20.5547C4.81921 20.8699 5.67727 21.0189 6.53895 20.9923C8.01407 21.0387 9.45668 20.5542 10.6032 19.6274C11.7497 18.7007 12.5237 17.3935 12.7836 15.9446H9.71967C9.52046 16.6308 9.10194 17.2333 8.52777 17.6604C7.95361 18.0876 7.25525 18.316 6.53895 18.3108C6.0481 18.3143 5.56179 18.217 5.11027 18.0249C4.65876 17.8329 4.25171 17.5502 3.91445 17.1946C3.57719 16.8389 3.31695 16.4178 3.14991 15.9575C2.98287 15.4972 2.91261 15.0075 2.9435 14.5189C2.90778 14.0304 2.97364 13.5397 3.13695 13.0778C3.30025 12.6158 3.55749 12.1924 3.89253 11.8342C4.22757 11.476 4.63319 11.1907 5.08397 10.9961C5.53475 10.8015 6.02097 10.7019 6.51216 10.7035ZM83.1633 13.3123L81.0253 12.9992C80.0051 12.8549 79.2764 12.5161 79.2764 11.7167C79.2764 10.8467 80.2248 10.4128 81.5119 10.4128C82.9211 10.4128 83.8202 11.0167 84.0142 12.0063H86.8327C86.5112 9.49476 84.5725 8.02203 81.5815 8.02203C78.4962 8.02203 76.4546 9.59202 76.4546 11.8139C76.4546 13.9386 77.791 15.1709 80.4873 15.5545L82.6253 15.8677C83.6702 16.012 84.2532 16.4234 84.2532 17.1961C84.2532 18.1858 83.233 18.5973 81.8237 18.5973C80.0983 18.5973 79.1263 17.8972 78.9806 16.8349H76.1181C76.3861 19.2738 78.3043 20.988 81.798 20.988C84.9808 20.988 87.0942 19.5388 87.0942 17.0508C87.0995 14.8331 85.5692 13.6736 83.1633 13.3123ZM31.0512 3.12077C30.8057 3.11154 30.5608 3.15246 30.3317 3.24101C30.1025 3.32956 29.8939 3.46388 29.7187 3.63571C29.5435 3.80755 29.4053 4.01329 29.3127 4.24029C29.2201 4.46729 29.175 4.71078 29.1801 4.9558C29.1801 5.4507 29.3772 5.92534 29.7282 6.27528C30.0791 6.62523 30.555 6.82183 31.0512 6.82183C31.5475 6.82183 32.0234 6.62523 32.3743 6.27528C32.7252 5.92534 32.9224 5.4507 32.9224 4.9558C32.9275 4.71078 32.8824 4.46729 32.7898 4.24029C32.6972 4.01329 32.559 3.80755 32.3838 3.63571C32.2086 3.46388 32 3.32956 31.7708 3.24101C31.5417 3.15246 31.2968 3.11154 31.0512 3.12077ZM73.8398 12.5396C73.8398 9.83997 72.183 8.0231 68.684 8.0231C65.38 8.0231 63.5335 9.68927 63.1692 12.25H66.0627C66.2084 11.2603 66.9854 10.4385 68.6347 10.4385C70.1168 10.4385 70.8455 11.0904 70.8455 11.8877C70.8455 12.9265 69.5092 13.1916 67.8567 13.3604C65.6211 13.6019 62.852 14.3747 62.852 17.2731C62.852 19.5175 64.5291 20.9677 67.2008 20.9677C68.0252 21.0458 68.854 20.8731 69.5782 20.4725C70.3023 20.0719 70.888 19.4622 71.2581 18.7234C71.2742 19.0085 71.3469 19.2876 71.4719 19.5445C71.597 19.8014 71.772 20.0309 71.9868 20.2198C72.2015 20.4087 72.4517 20.5532 72.7229 20.6449C72.9941 20.7366 73.2808 20.7737 73.5665 20.754H75.2672V18.1666H73.8398V12.5396ZM70.9677 15.6785C70.95 16.0821 70.8517 16.4781 70.6787 16.8433C70.5056 17.2086 70.2613 17.5357 69.9599 17.8056C69.6585 18.0755 69.3062 18.2828 68.9235 18.4152C68.5408 18.5477 68.1355 18.6026 67.7313 18.577C66.6371 18.577 65.7144 18.1185 65.7144 17.1523C65.7144 15.9211 67.1965 15.5823 68.5575 15.4423C69.8692 15.3216 70.5937 15.0319 70.9634 14.4805L70.9677 15.6785ZM55.4917 8.0231C54.7374 8.01261 53.9902 8.16974 53.3044 8.48307C52.6185 8.79641 52.0112 9.2581 51.5266 9.83462V3H48.6116V20.7508H51.4783V19.1081C51.9593 19.705 52.5703 20.1848 53.265 20.5111C53.9596 20.8373 54.7197 21.0016 55.4874 20.9913C56.3233 20.9889 57.15 20.8172 57.9173 20.4867C58.6847 20.1562 59.3767 19.6738 59.9515 19.0686C60.5263 18.4633 60.9719 17.748 61.2612 16.966C61.5505 16.1839 61.6775 15.3514 61.6345 14.5189C61.6736 13.6866 61.5442 12.8549 61.254 12.0735C60.9638 11.2921 60.5188 10.577 59.9456 9.97082C59.3723 9.36462 58.6825 8.87974 57.9173 8.54511C57.1521 8.21049 56.3272 8.03295 55.4917 8.0231ZM55.0545 18.3108C54.563 18.3128 54.0762 18.2147 53.624 18.0225C53.1719 17.8303 52.7638 17.5481 52.4249 17.193C52.086 16.838 51.8233 16.4177 51.653 15.9579C51.4827 15.4981 51.4083 15.0084 51.4344 14.5189C51.4106 14.0269 51.4872 13.5352 51.6596 13.0735C51.8319 12.6119 52.0964 12.1899 52.4371 11.8332C52.7777 11.4765 53.1875 11.1925 53.6414 10.9983C54.0954 10.8041 54.5841 10.7038 55.0781 10.7035C55.5708 10.7008 56.0587 10.7994 56.5115 10.9932C56.9643 11.187 57.3721 11.4718 57.7095 11.8299C58.0469 12.1879 58.3067 12.6115 58.4725 13.0742C58.6384 13.5369 58.7068 14.0287 58.6735 14.5189C58.6996 15.0083 58.6253 15.4979 58.455 15.9577C58.2848 16.4174 58.0222 16.8376 57.6834 17.1926C57.3446 17.5476 56.9366 17.8299 56.4846 18.0222C56.0326 18.2145 55.5459 18.3127 55.0545 18.3108ZM41.6436 8.0231C40.8945 7.97599 40.1458 8.12239 39.47 8.44815C38.7941 8.77391 38.214 9.26802 37.7856 9.88272V8.26464H34.8921V20.7497H37.807V13.9643C37.7695 13.5483 37.8197 13.1292 37.9543 12.7337C38.0889 12.3383 38.3051 11.9754 38.5888 11.6682C38.8726 11.3611 39.2176 11.1166 39.6018 10.9505C39.986 10.7843 40.4008 10.7002 40.8195 10.7035C41.1958 10.6923 41.5701 10.7612 41.9176 10.9055C42.2651 11.0498 42.5778 11.2663 42.8349 11.5405C43.092 11.8147 43.2876 12.1403 43.4087 12.4958C43.5298 12.8512 43.5736 13.2283 43.5373 13.6019V20.7508H46.4522V13.385C46.4533 10.245 44.8265 8.0231 41.6436 8.0231ZM100.997 14.1096C101.023 13.2991 100.881 12.4919 100.581 11.7384C100.28 10.9849 99.8272 10.3012 99.2499 9.73013C98.6726 9.15901 97.9834 8.71268 97.2255 8.41898C96.4675 8.12528 95.657 7.99052 94.8445 8.0231C93.9847 8.00261 93.1298 8.15682 92.3317 8.47636C91.5337 8.7959 90.8091 9.27407 90.2023 9.88176C89.5954 10.4895 89.1189 11.214 88.8018 12.0112C88.4847 12.8084 88.3336 13.6616 88.3577 14.5189C88.3344 15.3792 88.4879 16.2352 88.8087 17.034C89.1296 17.8329 89.6111 18.5579 90.2235 19.1642C90.8359 19.7705 91.5663 20.2454 92.3697 20.5596C93.173 20.8739 94.0324 21.0207 94.8949 20.9913C96.243 21.0645 97.5758 20.6757 98.6718 19.8893C99.7678 19.1029 100.561 17.9663 100.92 16.6682H97.8859C97.6409 17.229 97.2252 17.6987 96.6976 18.0108C96.17 18.3229 95.5573 18.4615 94.9463 18.407C94.0518 18.4352 93.1805 18.1204 92.5117 17.5273C91.8429 16.9343 91.4275 16.1082 91.3508 15.219H100.996V14.1096H100.997ZM91.5223 13.1424C91.6792 12.3968 92.0934 11.7297 92.6929 11.2574C93.2924 10.7851 94.039 10.5377 94.8027 10.5582C95.5641 10.5117 96.3154 10.7512 96.9086 11.2295C97.5019 11.7077 97.8941 12.3902 98.0081 13.1424H91.5223Z" fill="#0052FF"></path>
</svg>