<svg xmlns:xlink="http://www.w3.org/1999/xlink" width="148" height="28" viewBox="0 0 148 28" fill="none" xmlns="http://www.w3.org/2000/svg">
<g clip-path="url(#clip0_925_2159)" fill="none">
<path fill-rule="evenodd" clip-rule="evenodd" d="M53.7006 10.2761C53.6971 10.2257 53.7045 10.1752 53.7221 10.128C53.7397 10.0808 53.7671 10.0379 53.8026 10.0022C53.838 9.96651 53.8807 9.93889 53.9277 9.92119C53.9746 9.90349 54.0248 9.89611 54.0748 9.89955C54.427 9.89955 54.9593 10.2761 55.2591 11.0281C55.1514 11.0281 54.9894 11.0605 54.8808 11.0605C54.2388 11.0625 53.7006 10.7589 53.7006 10.2761ZM14.899 10.2761C14.8951 10.2254 14.9021 10.1745 14.9196 10.1269C14.9371 10.0793 14.9648 10.036 15.0006 10.0002C15.0364 9.9644 15.0795 9.93684 15.1269 9.91946C15.1744 9.90207 15.225 9.89528 15.2753 9.89955C15.6184 9.89955 16.1285 10.2761 16.4244 11.0281C15.4333 11.0291 14.898 10.8135 14.898 10.2761H14.899ZM22.3828 6.38842C22.3828 2.36412 23.1626 1.7457 23.4041 1.7457C23.8347 1.7457 23.886 2.01595 23.886 3.55947C23.8364 5.26879 23.316 6.9307 22.3828 8.36008V6.38842ZM49.6256 10.354C49.0654 11.1589 48.7727 12.1215 48.7895 13.104C48.7895 15.3722 50.0754 17.5362 52.5737 17.5362C54.9884 17.5362 56.6808 15.6131 56.6808 12.94C56.6977 12.5362 56.6711 12.1316 56.6013 11.7336C57.1131 11.4889 57.5913 11.1786 58.024 10.8105C58.2322 10.6127 58.4936 10.4807 58.7756 10.4309C59.0161 10.4309 59.1217 10.6202 59.1217 10.9704V16.267C59.1217 17.1293 59.3934 17.5362 60.0615 17.5362C60.3446 17.5212 60.6172 17.4236 60.846 17.2554C61.0749 17.0872 61.2502 16.8556 61.3504 16.5888C62.2388 14.7255 63.5237 12.2427 64.0851 11.2993C64.2199 11.0827 64.3296 10.9168 64.4071 10.9168C64.5147 10.9168 64.5701 10.9987 64.5701 11.3489V15.5655C64.5701 16.7518 65.1084 17.5362 66.2806 17.5362C67.5181 17.5362 68.1319 16.3439 69.2125 14.5089C69.2571 14.4266 69.2825 14.3352 69.287 14.2417C69.2851 14.1881 69.2725 14.1355 69.2498 14.087C69.2272 14.0384 69.195 13.995 69.1552 13.9594C69.1154 13.9237 69.0689 13.8965 69.0184 13.8795C68.9679 13.8624 68.9145 13.8558 68.8614 13.8601C68.6179 13.8601 68.483 14.105 67.6801 14.9937C67.5171 15.1627 67.3592 15.3985 67.0613 15.3985C66.9547 15.3985 66.8732 15.269 66.8732 15.104V10.3773C66.8732 9.10805 66.3087 8.59591 65.5843 8.59591C65.2551 8.60236 64.9338 8.69873 64.6549 8.87469C64.3759 9.05066 64.1498 9.2996 64.0006 9.59489C63.1433 10.9667 62.3571 12.3823 61.6452 13.8358C61.5878 13.9491 61.5114 14.1101 61.459 14.1101C61.4067 14.1101 61.3796 14.0271 61.3796 13.8358V10.3793C61.3796 9.38234 61.1109 8.59793 60.0625 8.59793C58.9618 8.59793 58.3993 9.35501 57.5934 9.9208C57.1853 10.2339 56.7471 10.5052 56.2854 10.7305C56.14 10.1901 55.8372 9.70583 55.416 9.33988C54.9949 8.97392 54.4745 8.74303 53.9219 8.67688C53.7341 8.66646 53.5463 8.69558 53.3704 8.76237C53.1944 8.82916 53.0343 8.93216 52.9002 9.06477C52.7661 9.19738 52.661 9.35669 52.5916 9.5325C52.5222 9.70831 52.49 9.89676 52.4972 10.0858C52.4938 10.4781 52.6139 10.8615 52.8404 11.181C53.0669 11.5004 53.388 11.7395 53.7579 11.8641C54.1795 12.017 54.6275 12.0824 55.075 12.0564C55.2175 12.0639 55.3605 12.0537 55.5006 12.0261C55.54 12.3406 55.5505 12.658 55.5318 12.9744C55.5645 13.2965 55.5322 13.6219 55.4368 13.9311C55.3414 14.2403 55.1849 14.5269 54.9767 14.7737C54.7684 15.0205 54.5127 15.2224 54.225 15.3674C53.9372 15.5123 53.6233 15.5973 53.3021 15.6172C51.7929 15.6172 50.9135 14.1587 50.9135 12.4866C50.8733 11.3849 51.2231 10.3046 51.9005 9.43801C52.148 9.16574 52.3332 9.00178 52.3332 8.75178C52.3332 8.62526 52.1491 8.59388 51.9861 8.59388C50.9617 8.65967 49.9648 8.95463 49.0682 9.45724C47.9109 10.1082 46.8307 10.8892 45.8485 11.7852C45.3655 10.7022 44.7759 9.76089 44.4791 9.02607C44.3724 8.72951 44.295 8.38538 44.0766 8.38538C43.8865 8.38538 43.803 8.57364 43.6742 8.94611C42.6899 11.1327 41.4756 13.207 40.052 15.1334C39.9987 15.2103 39.9212 15.2963 39.895 15.2963C39.8367 15.2963 39.8065 15.27 39.8065 15.105V10.3783C39.8065 9.10906 39.2974 8.59692 38.6051 8.59692C38.2751 8.59978 37.9524 8.69467 37.6728 8.87104C37.3932 9.0474 37.1677 9.29833 37.0214 9.59591C36.137 10.9491 35.0594 12.9198 34.5513 13.8894C34.4698 14.0564 34.3883 14.1081 34.3612 14.1081C34.334 14.1081 34.3129 14.0008 34.3129 13.8338V10.3793C34.3129 9.11007 33.8007 8.59793 33.1055 8.59793C32.7704 8.59274 32.4408 8.68403 32.1556 8.86102C31.8704 9.03802 31.6414 9.29335 31.4956 9.59692C30.3707 11.52 28.4932 14.4552 28.1441 14.9421C28.1054 15.0101 28.0495 15.0667 27.9821 15.106C27.9288 15.106 27.8986 15.0534 27.8986 14.9198V10.3793C27.8986 9.11007 27.3895 8.59793 26.6912 8.59793C25.7233 8.59793 25.189 9.49368 24.8369 10.0574C24.3519 10.8408 23.71 11.8955 23.2018 12.8692C23.0122 13.3202 22.7535 13.7386 22.4352 14.1091C22.3838 14.1091 22.3838 13.8641 22.3838 13.4066V9.79024C24.0996 7.9611 25.0752 5.55374 25.1196 3.03923C25.1196 1.5787 24.4787 0.772018 23.4876 0.772018C21.6312 0.772018 20.2125 3.68902 20.2125 7.14246V9.94914C19.3983 10.453 18.4944 10.7926 17.5513 10.9491C17.4242 10.3651 17.1223 9.83425 16.6863 9.42801C16.2502 9.02176 15.7009 8.75963 15.1123 8.67688C14.9247 8.6669 14.737 8.69637 14.5613 8.7634C14.3856 8.83044 14.2258 8.93358 14.0919 9.06624C13.958 9.1989 13.8531 9.35816 13.7839 9.53388C13.7146 9.7096 13.6825 9.89791 13.6896 10.0868C13.6896 11.5159 15.0862 12.1111 16.3167 12.1111H16.6658C16.71 12.3973 16.7275 12.687 16.7182 12.9765C16.7508 13.2979 16.7185 13.6227 16.6234 13.9313C16.5283 14.2399 16.3723 14.5261 16.1647 14.7726C15.9571 15.0192 15.7022 15.221 15.4152 15.3661C15.1282 15.5113 14.8151 15.5966 14.4945 15.6172C12.9924 15.6172 12.1049 14.1587 12.1049 12.4866C12.0634 11.3842 12.4145 10.3031 13.095 9.43801C13.3027 9.25666 13.4531 9.01811 13.5276 8.75178C13.5276 8.62526 13.3385 8.59388 13.1755 8.59388C12.1562 8.59388 9.90445 9.97647 7.21901 12.6759C6.93593 10.5794 6.76631 8.46899 6.7109 6.354C6.73274 4.73776 6.91987 3.12806 7.26932 1.55036C7.31456 1.31035 7.3438 1.06757 7.35685 0.823638C7.35685 0.606026 7.24215 0.49469 6.95439 0.49469C4.77706 0.499751 -0.00219727 3.98457 -0.00219727 9.1951C-0.00219727 12.8904 1.34304 14.6738 3.6733 16.9684C2.1848 19.1834 1.30582 21.7553 1.12571 24.4228C1.12571 26.1749 1.52817 27.5018 2.81706 27.5018C5.50149 27.5018 7.51281 21.8894 7.51281 17.7285C7.51281 16.4876 7.4635 15.2437 7.35786 14.0048C8.22491 13.0285 9.19483 12.1499 10.2506 11.3844C10.0846 11.9431 9.99454 12.5219 9.98293 13.105C9.98293 15.3732 11.2738 17.5372 13.7671 17.5372C16.1054 17.5372 17.8732 15.6141 17.8732 12.941C17.8732 12.5959 17.8461 12.2953 17.8219 11.9724C18.6622 11.8422 19.4719 11.5592 20.2115 11.1374V16.5635C20.2006 16.6915 20.217 16.8203 20.2598 16.9413C20.3025 17.0624 20.3706 17.1728 20.4594 17.265C20.5482 17.3573 20.6556 17.4294 20.7745 17.4763C20.8933 17.5233 21.0208 17.544 21.1483 17.5372C21.7691 17.5372 22.091 17.102 22.5428 16.1091C22.9231 15.2993 23.9394 13.434 24.5551 12.3236C25.0411 11.4572 25.3098 10.8945 25.5261 10.8945C25.5764 10.8945 25.6337 11.0261 25.6337 11.351V15.9714C25.6337 17.2143 26.2777 17.5392 26.8351 17.5392C27.091 17.5265 27.3394 17.4477 27.5561 17.3103C27.7729 17.1729 27.9508 16.9816 28.0727 16.7548C29.4702 14.7548 30.9483 12.3813 31.5339 11.352C31.6425 11.1678 31.7753 11.0271 31.884 11.0271C31.9927 11.0271 32.043 11.0858 32.043 11.4319V16.269C32.043 17.1313 32.3116 17.5382 32.9857 17.5382C33.2644 17.5221 33.532 17.4235 33.7552 17.255C33.9784 17.0865 34.1472 16.8555 34.2404 16.5908C35.1319 14.7275 36.4439 12.269 37.0104 11.3014C37.1412 11.0848 37.277 10.8965 37.3565 10.8965C37.4682 10.8965 37.4923 11.0281 37.4923 11.3823V15.9714C37.4923 17.2143 38.1363 17.5392 38.6997 17.5392C39.4443 17.5392 39.9333 16.9967 40.4152 16.3783C41.2956 15.2123 42.5845 13.1394 43.3643 11.8125C43.6694 12.2979 43.9384 12.8054 44.1692 13.3307C43.46 14.0326 43.0054 14.9535 42.8783 15.9461C42.8638 16.1463 42.8898 16.3473 42.9546 16.5371C43.0194 16.7268 43.1217 16.9015 43.2554 17.0504C43.3891 17.1994 43.5513 17.3196 43.7324 17.4037C43.9135 17.4879 44.1097 17.5343 44.3091 17.5402C44.9935 17.4744 45.6247 17.1402 46.0661 16.6098C46.5075 16.0795 46.7235 15.3956 46.6675 14.7062C46.6417 14.0297 46.4979 13.3631 46.2429 12.7366C47.1782 11.6978 48.3345 10.8847 49.6256 10.3581V10.354ZM5.41899 16.2427C5.64422 17.5454 5.77871 18.8624 5.82145 20.184C5.82145 22.772 4.96521 25.7963 3.48817 25.772C2.91768 25.772 2.43875 25.1981 2.4146 24.2052C2.48342 21.2844 3.54239 18.475 5.41597 16.2427H5.41899ZM44.6019 14.4026C44.7526 14.7902 44.8353 15.2011 44.8463 15.6172C44.8463 16.0504 44.6844 16.4825 44.3875 16.4825C44.1762 16.4825 43.9609 16.2396 43.9609 15.8601C44.0488 15.3276 44.2693 14.8262 44.6019 14.4026ZM6.38792 1.52607C6.38792 1.69105 6.01162 2.44408 5.53067 3.79631C4.8655 5.65712 4.52841 7.62048 4.53457 9.59793C4.63333 11.3573 4.85015 13.1079 5.18355 14.8378L4.32429 16.0018C2.74957 14.0997 1.95316 11.6662 2.09665 9.1951C2.09665 4.60704 4.86057 1.42384 6.28026 1.42384C6.36478 1.42384 6.38893 1.44813 6.38893 1.52505L6.38792 1.52607Z" fill="#D51900"></path>
<path fill-rule="evenodd" clip-rule="evenodd" d="M132.413 10.2763C132.408 10.2258 132.415 10.175 132.433 10.1275C132.45 10.0799 132.477 10.0367 132.513 10.0009C132.549 9.96509 132.592 9.9375 132.639 9.92004C132.686 9.90258 132.737 9.89567 132.787 9.89981C133.133 9.89981 133.671 10.2763 133.965 11.0283C133.864 11.0283 133.699 11.0607 133.587 11.0607C132.948 11.0628 132.413 10.7591 132.413 10.2763ZM93.603 10.2763C93.5995 10.2258 93.6069 10.1751 93.6246 10.1277C93.6424 10.0803 93.67 10.0373 93.7057 10.0016C93.7414 9.96592 93.7843 9.93835 93.8315 9.92078C93.8787 9.90321 93.9291 9.89606 93.9793 9.89981C94.3284 9.89981 94.8436 10.2763 95.1323 11.0283C94.1393 11.0294 93.603 10.8138 93.603 10.2763ZM101.091 6.38867C101.091 2.36438 101.866 1.74596 102.11 1.74596C102.539 1.74596 102.593 2.0162 102.593 3.55973C102.543 5.2688 102.023 6.93046 101.091 8.36033V6.38867ZM84.1371 16.2429C84.358 17.5463 84.4924 18.8629 84.5395 20.1842C84.5395 22.7723 83.6823 25.7966 82.2022 25.7723C81.6398 25.7723 81.1568 25.1984 81.1296 24.2055C81.1986 21.2837 82.26 18.4737 84.1371 16.2429ZM123.315 14.4028C123.464 14.7906 123.545 15.2016 123.554 15.6174C123.554 16.0506 123.393 16.4828 123.099 16.4828C122.886 16.4828 122.666 16.2399 122.666 15.8603C122.755 15.3268 122.979 14.8252 123.315 14.4028ZM85.0929 1.52633C85.0929 1.69131 84.7206 2.44434 84.2346 3.79657C83.5726 5.65813 83.2366 7.6211 83.2416 9.59819C83.3431 11.3574 83.5606 13.1079 83.8925 14.8381L83.0303 16.002C81.4565 14.0993 80.6596 11.6665 80.8006 9.19535C80.8006 4.6073 83.5706 1.4241 84.9903 1.4241C85.0677 1.4241 85.0909 1.44839 85.0909 1.52531L85.0929 1.52633ZM80.6155 15.0263C81.1513 15.7216 81.7429 16.3716 82.3843 16.9696C80.8917 19.182 80.0116 21.7543 79.8347 24.4221C79.8347 26.1741 80.2372 27.501 81.5291 27.501C84.2095 27.501 86.2208 21.8887 86.2208 17.7277C86.2208 16.4869 86.1685 15.2429 86.0608 14.0041C86.931 13.0258 87.9055 12.1467 88.9666 11.3826C88.7977 11.9409 88.7056 12.5198 88.6929 13.1032C88.6929 15.3715 89.9828 17.5354 92.4811 17.5354C94.8134 17.5354 96.5843 15.6124 96.5843 12.9393C96.5843 12.5941 96.5591 12.2935 96.5299 11.9707C97.3708 11.8417 98.1811 11.5586 98.9206 11.1356V16.5618C98.9096 16.6894 98.926 16.818 98.9686 16.9388C99.0112 17.0596 99.0789 17.1698 99.1674 17.2621C99.2558 17.3543 99.3629 17.4264 99.4814 17.4736C99.5999 17.5207 99.727 17.5418 99.8543 17.5354C100.48 17.5354 100.801 17.1002 101.256 16.1073C101.63 15.2976 102.652 13.4322 103.268 12.3219C103.75 11.4555 104.018 10.8927 104.238 10.8927C104.288 10.8927 104.339 11.0243 104.339 11.3492V15.9717C104.339 17.2146 104.981 17.5395 105.546 17.5395C105.802 17.5263 106.051 17.4472 106.268 17.3099C106.485 17.1726 106.664 16.9816 106.787 16.7551C108.178 14.7551 109.656 12.3816 110.245 11.3522C110.353 11.168 110.488 11.0273 110.592 11.0273C110.696 11.0273 110.756 11.086 110.756 11.4322V16.2692C110.756 17.1316 111.022 17.5385 111.692 17.5385C111.972 17.5226 112.241 17.4244 112.465 17.2559C112.69 17.0875 112.86 16.8563 112.955 16.5911C113.842 14.7277 115.156 12.2692 115.717 11.3016C115.854 11.085 115.988 10.8968 116.072 10.8968C116.172 10.8968 116.205 11.0283 116.205 11.3826V15.9717C116.205 17.2146 116.843 17.5395 117.406 17.5395C118.162 17.5395 118.646 16.997 119.125 16.3786C120.011 15.2126 121.302 13.1397 122.079 11.8128C122.383 12.2989 122.652 12.8063 122.884 13.331C122.173 14.0313 121.719 14.9532 121.595 15.9464C121.58 16.1461 121.604 16.3469 121.668 16.5368C121.731 16.7266 121.833 16.9015 121.965 17.0509C122.098 17.2003 122.26 17.3211 122.44 17.4059C122.62 17.4908 122.816 17.5379 123.015 17.5445C123.7 17.4787 124.331 17.1445 124.772 16.6141C125.213 16.0838 125.43 15.3999 125.374 14.7105C125.347 14.0337 125.202 13.3669 124.945 12.7409C125.882 11.7042 127.037 10.8914 128.327 10.3624C127.77 11.1691 127.479 12.1308 127.494 13.1124C127.494 15.3806 128.784 17.5445 131.281 17.5445C133.695 17.5445 135.382 15.6215 135.382 12.9484C135.399 12.5447 135.374 12.1403 135.306 11.7419C135.818 11.4956 136.296 11.1854 136.73 10.8188C136.936 10.6217 137.195 10.4897 137.476 10.4393C137.718 10.4393 137.832 10.6286 137.832 10.9788V16.2753C137.832 17.1377 138.096 17.5445 138.767 17.5445C139.05 17.529 139.323 17.4312 139.552 17.2631C139.781 17.0949 139.956 16.8636 140.057 16.5972C140.938 14.7338 142.228 12.251 142.789 11.3077C142.923 11.0911 143.033 10.9251 143.114 10.9251C143.224 10.9251 143.276 11.0071 143.276 11.3573V15.5739C143.276 16.7601 143.808 17.5445 144.992 17.5445C146.23 17.5445 146.846 16.3522 147.921 14.5172C147.965 14.4348 147.991 14.3436 147.997 14.25C147.994 14.1965 147.981 14.1442 147.957 14.096C147.934 14.0478 147.902 14.0047 147.862 13.9692C147.822 13.9337 147.776 13.9065 147.725 13.8892C147.675 13.8719 147.621 13.8649 147.568 13.8684C147.329 13.8684 147.191 14.1134 146.388 15.002C146.229 15.1711 146.065 15.4069 145.771 15.4069C145.661 15.4069 145.585 15.2773 145.585 15.1124V10.3856C145.585 9.11641 145.015 8.60426 144.29 8.60426C143.962 8.6109 143.641 8.70738 143.363 8.88336C143.084 9.05935 142.859 9.30821 142.711 9.60325C141.851 10.973 141.064 12.3876 140.353 13.8411C140.295 13.9545 140.217 14.1154 140.16 14.1154C140.103 14.1154 140.082 14.0324 140.082 13.8411V10.3796C140.082 9.3826 139.813 8.59819 138.766 8.59819C137.66 8.59819 137.103 9.35527 136.298 9.92106C135.886 10.2348 135.444 10.506 134.978 10.7308C134.835 10.1907 134.533 9.70631 134.113 9.34022C133.693 8.97414 133.174 8.74317 132.622 8.67714C132.434 8.66653 132.246 8.69554 132.071 8.7623C131.895 8.82906 131.735 8.93211 131.601 9.0648C131.467 9.19749 131.362 9.3569 131.293 9.53279C131.224 9.70867 131.192 9.89712 131.2 10.086C131.196 10.4777 131.315 10.8606 131.541 11.18C131.766 11.4993 132.086 11.7389 132.455 11.8644C132.878 12.0174 133.329 12.0828 133.778 12.0567C133.921 12.0635 134.065 12.0533 134.206 12.0263C134.24 12.3412 134.249 12.6584 134.231 12.9747C134.263 13.2969 134.231 13.6223 134.135 13.9316C134.04 14.2408 133.883 14.5275 133.675 14.7744C133.467 15.0212 133.211 15.2233 132.923 15.3683C132.635 15.5134 132.321 15.5984 132 15.6184C130.498 15.6184 129.616 14.1599 129.616 12.4879C129.576 11.3859 129.926 10.3053 130.605 9.43928C130.849 9.16701 131.039 9.00305 131.039 8.75305C131.039 8.62653 130.85 8.59515 130.689 8.59515C129.662 8.66141 128.663 8.95631 127.764 9.45851C126.606 10.109 125.526 10.89 124.544 11.7864C124.059 10.7035 123.473 9.76216 123.174 9.02734C123.063 8.73078 122.991 8.38665 122.772 8.38665C122.586 8.38665 122.504 8.57491 122.369 8.94738C121.384 11.1334 120.169 13.2076 118.747 15.1346C118.693 15.2115 118.613 15.2976 118.584 15.2976C118.534 15.2976 118.504 15.2713 118.504 15.1063V10.3796C118.504 9.11033 118.001 8.59819 117.297 8.59819C116.967 8.602 116.645 8.69729 116.366 8.87357C116.087 9.04985 115.862 9.30026 115.715 9.59718C114.828 10.9504 113.758 12.9211 113.247 13.8907C113.169 14.0577 113.089 14.1093 113.064 14.1093C113.039 14.1093 113.006 14.002 113.006 13.835V10.3796C113.006 9.11033 112.503 8.59819 111.798 8.59819C111.463 8.59213 111.133 8.68306 110.848 8.86015C110.562 9.03725 110.334 9.29306 110.189 9.59718C109.058 11.5203 107.182 14.4555 106.831 14.9423C106.795 15.0127 106.739 15.07 106.669 15.1063C106.622 15.1063 106.59 15.0537 106.59 14.92V10.3796C106.59 9.11033 106.082 8.59819 105.383 8.59819C104.414 8.59819 103.881 9.49394 103.53 10.0577C103.047 10.8411 102.407 11.8958 101.895 12.8694C101.711 13.3199 101.458 13.7386 101.145 14.1103C101.091 14.1103 101.091 13.8654 101.091 13.4079V9.7905C102.809 7.96265 103.785 5.55448 103.827 3.03948C103.827 1.57896 103.185 0.772277 102.188 0.772277C100.338 0.772277 98.9175 3.68928 98.9175 7.14272V9.9494C98.1033 10.4531 97.1994 10.7927 96.2562 10.9494C96.13 10.3658 95.829 9.83519 95.3939 9.42893C94.9587 9.02267 94.4102 8.76029 93.8223 8.67714C93.6344 8.6664 93.4462 8.69533 93.2701 8.76206C93.0939 8.82879 92.9335 8.93185 92.7992 9.06462C92.665 9.19739 92.5598 9.35694 92.4904 9.53302C92.4211 9.7091 92.3891 9.89781 92.3966 10.0871C92.3966 11.5162 93.7881 12.1113 95.0247 12.1113H95.3758C95.4175 12.3978 95.434 12.6874 95.4252 12.9767C95.4583 13.2986 95.4265 13.6239 95.3315 13.9331C95.2365 14.2422 95.0804 14.5289 94.8725 14.7758C94.6646 15.0228 94.4093 15.2249 94.1218 15.37C93.8343 15.5152 93.5206 15.6004 93.1995 15.6205C91.6963 15.6205 90.8149 14.162 90.8149 12.4899C90.7751 11.3881 91.1252 10.3078 91.803 9.44131C92.0095 9.2593 92.1591 9.02092 92.2336 8.75507C92.2336 8.62855 92.0445 8.59717 91.8855 8.59717C90.8642 8.59717 88.6114 9.97977 85.925 12.6792C85.6445 10.5825 85.4766 8.47215 85.4219 6.3573C85.4445 4.74082 85.6333 3.13103 85.9853 1.55365C86.0291 1.31356 86.0567 1.07077 86.0679 0.826933C86.0679 0.609322 85.9582 0.497986 85.6654 0.497986C83.4911 0.497986 78.7128 3.9828 78.7128 9.19333C78.6465 10.9367 79.0845 12.662 79.9736 14.1599C79.7239 14.1189 79.4709 14.1012 79.2179 14.1073C78.4864 14.1343 77.7602 14.2433 77.0527 14.4322V13.8897C77.1058 12.7431 76.8441 11.6039 76.2961 10.5972C76.2381 10.5442 76.162 10.5158 76.0838 10.5182C75.8062 10.5434 75.5387 10.6354 75.304 10.7864C74.978 10.9494 74.657 11.1134 74.657 11.2186C74.6569 11.3053 74.6852 11.3896 74.7375 11.4585C75.2251 12.0534 75.5325 12.7768 75.6229 13.5425C75.1932 13.0991 74.6754 12.7518 74.1033 12.5232C73.5312 12.2945 72.9176 12.1897 72.3026 12.2156C70.6927 12.2156 70.2037 12.9423 70.2037 13.6761C70.2037 15.08 72.0561 15.7814 74.3944 15.7814C74.8634 15.7684 75.3296 15.7043 75.7849 15.5901C75.7849 16.0233 75.8392 16.4059 75.8392 16.7277C75.8392 17.1873 75.9167 17.5375 76.2166 17.5375C76.6713 17.5375 76.942 16.6154 76.9933 15.2956C77.7793 15.064 78.59 14.9281 79.4081 14.8907C79.8137 14.8973 80.2179 14.9414 80.6155 15.0223V15.0263ZM75.3291 14.7561C74.9283 14.8014 74.5249 14.8193 74.1217 14.8097C73.0723 14.8097 72.2986 14.4049 72.2986 13.8138C72.2986 13.4362 72.4837 13.2176 73.021 13.2176C73.8813 13.2176 74.5755 13.8138 75.3281 14.7561H75.3291Z" fill="#D51900"></path>
</g>
<defs>
<clipPath id="clip0_925_2159">
<rect width="148" height="27" fill="white" transform="translate(0 0.5)"></rect>
</clipPath>
</defs>
</svg>