<svg xmlns:xlink="http://www.w3.org/1999/xlink" width="30" height="30" xmlns="http://www.w3.org/2000/svg"><path d="M14.9987 24.6365C14.9137 24.6365 6.42125 24.6302 4.31375 24.0602C3.73267 23.9018 3.20335 23.5937 2.77868 23.1666C2.35401 22.7395 2.04887 22.2084 1.89375 21.6265C1.50226 19.4397 1.31188 17.2217 1.325 15.0002C1.31181 12.7792 1.50218 10.5616 1.89375 8.37523C2.0486 7.79287 2.35362 7.26135 2.77829 6.83382C3.20297 6.4063 3.73243 6.09773 4.31375 5.93898C6.42125 5.37148 14.9137 5.36523 14.9987 5.36523C15.0837 5.36523 23.5787 5.37148 25.6862 5.93898C26.2676 6.09708 26.7971 6.40546 27.2215 6.83313C27.6459 7.26079 27.9501 7.79266 28.1037 8.37523C28.4979 10.5613 28.6895 12.779 28.6762 15.0002C28.6894 17.2215 28.4977 19.4392 28.1037 21.6252C27.9501 22.2075 27.6458 22.7391 27.2214 23.1663C26.797 23.5936 26.2675 23.9015 25.6862 24.059C23.575 24.6302 15.0837 24.6365 14.9987 24.6365ZM12.2 10.9327V19.0677L19.35 15.0002L12.2 10.9327Z" fill="#CCCCCC"></path></svg>