<svg xmlns:xlink="http://www.w3.org/1999/xlink" width="65" height="22" viewBox="0 0 65 22" fill="none" xmlns="http://www.w3.org/2000/svg">
<g clip-path="url(#clip0_925_2165)" fill="none">
<path d="M27.8966 -0.000389522L17.0179 8.57278C16.5077 6.46233 15.3256 4.58612 13.6583 3.24049C11.9911 1.89486 9.93371 1.1565 7.81113 1.14201H0V20.8582H7.80812C9.94137 20.887 12.0196 20.1647 13.6953 18.8122C15.3709 17.4596 16.5425 15.5587 17.0139 13.4275L27.8946 21.9996L38.7753 13.4275V20.8582H51.0497V16.8567H42.9612V1.14201H38.497V8.57072L28.1739 17.1449L25.9413 15.1431L30.9652 11.1416L36.2644 6.85506L33.1968 4.28208L22.8747 12.5671L20.6431 10.5663L30.9652 2.56642L27.8956 -0.00656128L27.8966 -0.000389522ZM4.1849 5.13631H7.53281C8.22708 5.13862 8.91263 5.29487 9.54236 5.5943C10.1778 5.89877 10.7492 6.32739 11.2244 6.85609C11.727 7.40912 12.1237 8.05394 12.3939 8.757C12.9604 10.2499 12.9739 11.9034 12.4321 13.4059C12.1794 14.1073 11.8049 14.7562 11.3268 15.3212C10.8609 15.8751 10.2901 16.3264 9.64887 16.6478C8.98722 16.9751 8.26156 17.1441 7.52678 17.1418H4.1849V5.13631ZM64.999 16.8578V20.8582H52.7216V1.14201H57.1848V16.8578H64.996H64.999Z" fill="#007DB8"></path>
</g>
<defs>
<clipPath id="clip0_925_2165">
<rect width="65" height="22" fill="white"></rect>
</clipPath>
</defs>
</svg>