<svg xmlns:xlink="http://www.w3.org/1999/xlink" width="30" height="30" xmlns="http://www.w3.org/2000/svg"><path d="M24.585 26.2502H5.41247C4.97881 26.2565 4.56033 26.0906 4.24889 25.7888C3.93744 25.4869 3.75846 25.0738 3.75122 24.6402L3.75122 5.3602C3.75879 4.92665 3.93787 4.51377 4.24924 4.21201C4.56062 3.91024 4.9789 3.74418 5.41247 3.7502H24.585C25.0192 3.7435 25.4384 3.90919 25.7507 4.21096C26.063 4.51273 26.243 4.92598 26.2512 5.3602V24.6402C26.2433 25.0745 26.0635 25.488 25.7511 25.7898C25.4387 26.0916 25.0193 26.2572 24.585 26.2502ZM17.7025 14.8527C18.8275 14.8527 19.425 15.6477 19.425 17.1514V22.5852H22.825V16.7602C22.825 13.8977 21.3612 12.1889 18.91 12.1889C18.2949 12.1615 17.684 12.3034 17.144 12.5992C16.604 12.895 16.1555 13.3333 15.8475 13.8664V12.4252H12.45C12.485 13.2039 12.4625 19.6464 12.45 22.3802C12.45 22.5052 12.45 22.5777 12.45 22.5864H15.8475V16.9127C15.8326 16.6331 15.8707 16.3531 15.96 16.0877C16.092 15.7301 16.3291 15.4209 16.6401 15.2005C16.951 14.9801 17.3214 14.8588 17.7025 14.8527ZM7.17247 12.4252V22.5852H10.57V12.4252H7.17247ZM8.89497 7.5277C8.65248 7.50417 8.40776 7.53121 8.17625 7.6071C7.94475 7.68299 7.73151 7.80609 7.55002 7.9686C7.36852 8.13112 7.22271 8.32952 7.12181 8.55127C7.02091 8.77301 6.96711 9.01328 6.96382 9.25688C6.96052 9.50048 7.0078 9.74212 7.10266 9.96652C7.19752 10.1909 7.33791 10.3932 7.51494 10.5606C7.69197 10.7279 7.9018 10.8567 8.13117 10.9389C8.36053 11.021 8.60444 11.0546 8.84747 11.0377H8.86872C9.11144 11.0599 9.35613 11.0316 9.58732 10.9544C9.81851 10.8772 10.0312 10.7528 10.2118 10.5892C10.3925 10.4256 10.5372 10.2263 10.6368 10.0038C10.7365 9.7814 10.7889 9.5407 10.7907 9.29697C10.7925 9.05324 10.7437 8.81179 10.6474 8.58788C10.5511 8.36398 10.4094 8.1625 10.2312 7.9962C10.053 7.8299 9.84226 7.70239 9.61225 7.62175C9.38224 7.5411 9.13799 7.50908 8.89497 7.5277Z" fill="#CCCCCC"></path></svg>