<svg xmlns:xlink="http://www.w3.org/1999/xlink" width="79" height="44" viewBox="0 0 79 44" fill="none" xmlns="http://www.w3.org/2000/svg">
<g opacity="0.8" clip-path="url(#clip0_925_2167)" fill="none">
<path d="M35.75 29.8194L35.846 29.8324C36.5105 29.9007 37.163 30.0608 37.7858 30.3084C38.2458 30.5013 38.6196 30.8629 38.8348 31.3233C39.024 31.6756 39.1393 32.0647 39.1733 32.4656C39.2073 32.8665 39.1593 33.2703 39.0324 33.6509C38.9055 34.0316 38.7024 34.3807 38.4363 34.6758C38.1703 34.9709 37.847 35.2053 37.4875 35.3642C36.933 35.6324 36.3371 35.7987 35.7268 35.8553C34.5838 35.9688 33.4325 35.7572 32.3984 35.2438C31.7121 34.9253 31.1274 34.4138 30.7116 33.7682C30.5754 33.5258 30.5094 33.2484 30.5214 32.9687C30.5333 32.6891 30.6227 32.4187 30.7791 32.1895C31.1017 31.8602 31.4931 31.6108 31.9235 31.4605C32.3539 31.3102 32.812 31.2629 33.263 31.3222C34.0806 31.3741 34.8894 31.5263 35.672 31.7754C35.9865 31.8841 36.2887 32.0274 36.5734 32.2026C36.614 32.2396 36.644 32.2874 36.6602 32.3407C36.6763 32.394 36.6781 32.4508 36.6651 32.5051C36.526 32.9387 35.4896 33.1751 35.1891 33.2206C34.3879 33.3464 33.9725 33.0352 33.0626 32.6655C32.8202 32.5608 32.5659 32.4879 32.3057 32.4487C31.8924 32.4086 31.3927 32.5267 31.3146 32.9908C31.2756 33.2304 31.5476 33.4538 31.7564 33.5481C32.1874 33.747 32.6546 33.8494 33.127 33.8484C34.5924 33.9437 36.0508 33.5727 37.304 32.7859C37.3912 32.7332 37.4653 32.6603 37.5202 32.5729C37.5751 32.4856 37.6094 32.3862 37.6203 32.2828C37.6203 31.8491 36.8823 31.5824 36.8823 31.5824C35.9181 31.2676 34.9192 31.0789 33.9092 31.0208C33.128 30.9514 31.8987 30.8473 31.6035 30.8039C31.2959 30.769 30.9942 30.6921 30.7063 30.5751C30.5642 30.5079 30.4373 30.4107 30.334 30.2898C30.2307 30.169 30.1532 30.0272 30.1064 29.8736C30.0514 29.5883 30.0525 29.2944 30.1097 29.0095C30.1669 28.7246 30.2791 28.4544 30.4396 28.2148C31.2155 27.0677 33.0331 26.6318 34.391 26.4583C35.9867 26.2026 37.6198 26.3897 39.1216 27.0005C39.3209 27.1089 39.4231 27.2173 39.381 27.4341C39.3386 27.6242 39.2462 27.7986 39.114 27.9383C38.9819 28.0781 38.8149 28.1778 38.6314 28.2267C38.1316 28.3403 37.6227 28.4059 37.1111 28.423C35.4604 28.4102 33.8124 28.5638 32.1908 28.8816C32.0539 28.9091 31.924 28.9652 31.8091 29.0464C31.5772 29.3055 32.2392 29.3792 32.3816 29.4096C32.4127 29.4179 32.4444 29.4233 32.4765 29.4259L35.7532 29.8227L35.75 29.8194ZM26.4934 22.6852C26.4934 22.6852 26.7464 22.2949 26.9583 21.9989C27.4389 21.3626 27.9788 20.7761 28.5703 20.2479C28.7316 20.1059 28.9214 19.9465 28.9214 19.9465C28.9214 19.9465 28.6241 19.9779 28.4565 20.0137C27.9853 20.1658 27.5501 20.4173 27.1787 20.7521C26.6958 21.1771 26.1645 21.8677 26.4048 22.4868C26.4396 22.5736 26.4934 22.6907 26.4934 22.6907V22.6852ZM29.1776 23.429C29.9304 23.3751 30.6621 23.15 31.3199 22.7698C31.9725 22.3947 32.9319 21.6628 32.8328 20.8019C32.8184 20.6735 32.7708 20.5513 32.695 20.4482C32.6191 20.345 32.5179 20.2647 32.4016 20.2154C32.2738 20.155 32.1348 20.1237 31.9941 20.1237C31.8535 20.1237 31.7145 20.155 31.5866 20.2154C31.3592 20.2765 31.1415 20.3711 30.9404 20.4962C30.0361 21.0813 29.2303 21.8136 28.5545 22.6646C28.4217 22.8446 28.2867 23.0463 28.1813 23.184C28.1149 23.2696 28.0632 23.3477 28.0696 23.3683C28.433 23.4501 28.807 23.4695 29.1766 23.4258L29.1776 23.429ZM27.2346 24.8927C27.1414 25.0332 27.0586 25.1807 26.9868 25.334C26.937 25.4192 26.8736 25.495 26.7991 25.5584C26.7618 25.5959 26.7176 25.6252 26.669 25.6448C26.6204 25.6643 26.5685 25.6736 26.5164 25.672C26.4643 25.6705 26.413 25.6582 26.3656 25.6359C26.3181 25.6136 26.2756 25.5817 26.2404 25.5422C26.1074 25.4153 26.0003 25.2624 25.9255 25.0924C25.8508 24.9224 25.8098 24.7388 25.805 24.5523C25.8142 24.3944 25.8114 24.2359 25.7965 24.0785C25.6951 23.8348 25.5637 23.6056 25.4054 23.3965C25.2539 23.0858 25.1625 22.7477 25.1365 22.4012C25.1404 21.9526 25.2324 21.5095 25.4071 21.0985C25.5817 20.6874 25.8354 20.317 26.1529 20.0094C26.7919 19.3254 27.5609 18.7839 28.4122 18.4188C29.3219 17.9932 30.3448 17.8965 31.3146 18.1445C31.6608 18.2721 31.9703 18.4868 32.215 18.769C32.2493 18.8228 32.2908 18.8714 32.3383 18.9132C32.4115 18.9404 32.4876 18.9579 32.565 18.9653C32.8787 19.0407 33.173 19.1842 33.4285 19.3859C33.7403 19.6341 33.9556 19.9886 34.0357 20.3856C34.0815 20.8101 34.0305 21.2398 33.8866 21.6404C33.7428 22.0411 33.5101 22.4018 33.2071 22.6939C32.3786 23.6139 31.3612 24.3325 30.2287 24.7973C29.6275 25.0426 28.9839 25.1596 28.3373 25.141C28.1571 25.1258 27.9715 25.077 27.7954 25.0651C27.6414 25.0401 27.4899 25.0001 27.3432 24.9458C27.2999 24.9111 27.2441 24.8819 27.2377 24.8927H27.2346ZM28.2794 26.7435C28.3262 26.753 28.372 26.7668 28.4164 26.7847C28.6005 26.875 28.7593 27.0119 28.8779 27.1826C28.9965 27.3532 29.071 27.5521 29.0943 27.7605C29.3069 29.099 29.4295 30.451 29.4612 31.8068C29.4897 32.4519 29.5055 33.0862 29.5318 33.7237C29.583 34.3116 29.5678 34.9035 29.4865 35.4878C29.4424 35.6915 29.3254 35.8707 29.1586 35.9898C28.8807 36.109 28.5741 36.1388 28.2794 36.0754C27.6805 35.9486 27.4865 35.5517 27.4011 34.9435C27.2425 33.1103 27.246 31.266 27.4117 29.4334C27.4734 28.6879 27.6029 27.9499 27.7986 27.2292C27.8671 27.0492 28.0095 26.6871 28.2699 26.7381L28.2794 26.7435ZM10.0635 29.1548C10.0635 29.1548 9.17259 29.2199 8.55899 29.2893C7.51032 29.4069 6.47491 29.6269 5.46678 29.9463C5.2127 30.0395 4.69715 30.2618 4.65287 30.5296C4.64761 30.6659 4.6726 30.8017 4.72593 30.9266C4.77927 31.0515 4.85956 31.1623 4.96072 31.2506C5.06615 31.3818 5.67975 31.9857 5.85159 32.1332C6.84847 32.9448 7.93915 33.6266 9.09879 34.1628C9.46778 34.32 10.0772 34.5445 10.0772 34.5445C10.0772 34.5445 10.0318 32.7599 10.0403 31.0012C10.0403 30.0731 10.0645 29.1581 10.0645 29.1581L10.0635 29.1548ZM26.4006 29.8682C26.4188 30.372 26.3888 30.8764 26.311 31.3742C26.2435 31.7103 26.1519 32.0408 26.0369 32.363C25.8888 32.7111 25.7238 33.0512 25.5424 33.3822C25.1558 34.0329 24.6851 34.6266 24.1434 35.1473C22.4169 36.4981 20.3586 37.3275 18.1994 37.5424C16.723 37.7223 15.2288 37.6778 13.765 37.4101C13.2611 37.3158 12.5115 37.1379 12.5115 37.1379C12.5115 37.1379 12.5115 37.4459 12.4904 37.6638C12.4643 37.8157 12.4226 37.9644 12.366 38.1072C12.3163 38.214 12.2411 38.306 12.1474 38.3749C12.0538 38.4437 11.9447 38.487 11.8304 38.5008C11.5275 38.5775 11.2094 38.5612 10.9153 38.4542C10.7057 38.3435 10.5289 38.177 10.4033 37.9719C10.2777 37.7669 10.2081 37.5309 10.2016 37.2887C10.1362 36.8756 10.0677 36.1578 10.0677 36.1578C10.0677 36.1578 9.71976 35.9887 9.42878 35.8391C8.55915 35.3943 7.72938 34.8714 6.9491 34.2767C6.74352 34.1195 5.86214 33.3594 5.66709 33.1708C5.11346 32.6667 4.63778 32.0788 4.25646 31.4273C4.10748 31.1993 4.01556 30.937 3.98889 30.6637C3.96222 30.3904 4.00162 30.1145 4.10359 29.8606C4.60993 29.0558 5.36718 28.4517 6.25117 28.1476C7.21268 27.7495 8.20605 27.4383 9.22003 27.2173C9.55529 27.1674 10.0761 27.072 10.1077 27.0503C10.1193 27.0414 10.1299 27.0312 10.1394 27.02C10.1552 26.9961 10.1836 26.2187 10.1784 25.9357C10.1731 25.6528 10.3797 23.8204 10.4462 23.4323C10.5049 23.0077 10.6217 22.5938 10.793 22.2028C10.8469 22.1403 10.922 22.1016 11.0028 22.0945C11.0837 22.0875 11.1641 22.1126 11.2274 22.1648C12.0413 22.6852 12.289 24.4916 12.3502 25.411C12.386 25.9704 12.404 26.8129 12.404 26.8129C12.404 26.8129 13.3381 26.7847 13.9126 26.801C14.5007 26.8282 15.0863 26.8949 15.6659 27.0005C16.7043 27.1604 17.7186 27.4559 18.6843 27.8798C19.3659 28.2008 19.9099 28.7668 20.2141 29.4714C20.3139 29.7149 20.3543 29.9799 20.3317 30.2431C20.3091 30.5064 20.2242 30.76 20.0844 30.9817C19.9237 31.2776 19.6961 31.5294 19.4208 31.7158C19.1456 31.9023 18.8308 32.0179 18.503 32.0529C18.1175 32.0524 17.7369 31.9639 17.3886 31.7938C17.3506 31.7592 17.3273 31.7106 17.3238 31.6585C17.3202 31.6064 17.3367 31.5549 17.3696 31.5152C17.3928 31.4848 17.7239 31.3048 17.9189 31.1986C18.0111 31.1478 18.0968 31.0856 18.1741 31.0132C18.3364 30.8657 18.4819 30.7042 18.4661 30.5144C18.444 30.2683 18.1899 30.1165 17.9484 30.0189C16.4939 29.5285 14.9869 29.2216 13.4604 29.1049C13.0323 29.0789 12.424 29.0572 12.424 29.0572L12.5526 35.2644C12.5526 35.2644 13.0555 35.3631 13.4519 35.4292C13.6796 35.465 14.6433 35.5539 14.8995 35.5604C16.9196 35.6948 18.9429 35.3544 20.8161 34.5651C21.593 34.2171 22.2918 33.7081 22.8688 33.0699C23.2361 32.6289 23.5135 32.1166 23.6847 31.5633C23.8558 31.0099 23.9171 30.4269 23.8651 29.8487C23.6157 28.4322 23.0167 27.1054 22.1255 25.9954C19.9344 23.4083 17.1643 21.4082 14.0539 20.1677C11.2077 18.9254 8.16702 18.2209 5.07775 18.0881C3.92218 18.0379 2.76486 18.1264 1.62919 18.3516C1.50268 18.3885 1.37511 18.4318 1.25703 18.46C1.15867 18.4858 1.06454 18.5264 0.977643 18.5804C0.961886 18.5941 0.947089 18.609 0.933363 18.6248C0.933363 18.6248 0.988186 18.6563 1.03879 18.679C1.13262 18.7213 1.52903 18.7462 1.73356 18.7874C1.82232 18.7996 1.9078 18.83 1.98494 18.8767C2.06208 18.9235 2.12933 18.9856 2.18269 19.0596C2.22121 19.1083 2.24225 19.1692 2.24225 19.232C2.24225 19.2948 2.22121 19.3557 2.18269 19.4044C1.98132 19.6559 1.22434 19.6136 0.891192 19.5594C0.558038 19.5052 0.113131 19.3935 0.0340593 19.0834C-0.0155817 18.7109 0.0774053 18.333 0.293413 18.0296C0.469437 17.716 0.708531 17.4447 0.994707 17.2338C1.28088 17.0229 1.60755 16.8772 1.95285 16.8066C3.09676 16.4927 4.2696 16.3033 5.45202 16.2417C7.75892 16.189 10.0578 16.5387 12.2511 17.276C13.6962 17.7375 15.1082 18.3023 16.4767 18.9663C17.5329 19.5038 18.5605 20.0988 19.5552 20.7488C19.8029 20.9169 21.2568 22.0152 21.4824 22.2082C21.9537 22.6039 22.5694 23.1731 23.0153 23.6285C23.9826 24.6016 24.8101 25.7114 25.4729 26.9246C25.5983 27.1804 25.6953 27.4331 25.8577 27.729C25.9878 28.0164 26.0991 28.3123 26.1908 28.6149C26.2298 28.7883 26.2878 29.0485 26.2963 29.054C26.3512 29.3236 26.3888 29.5967 26.4091 29.8715L26.4006 29.8682ZM55.7276 28.4988C54.4147 28.7095 53.0912 28.8438 51.7635 28.9011L51.4008 30.0677C52.2258 29.9975 53.0548 29.9928 53.8805 30.0536C53.8805 30.0536 54.2189 30.0135 54.259 30.4483C54.2648 30.7292 54.2535 31.0102 54.2253 31.2896C54.2253 31.2896 54.2042 31.5531 53.8405 31.6149C53.4472 31.6821 50.7472 31.7895 50.7472 31.7895L50.3097 33.3074C50.3097 33.3074 50.1473 33.6587 50.511 33.5589C51.6753 33.2861 52.857 33.0988 54.0471 32.9984C54.2769 33.0702 54.4742 33.2239 54.6035 33.4321C54.7328 33.6402 54.7856 33.889 54.7524 34.1336C54.6016 34.7451 51.7783 36.5969 50.0587 36.4679C50.0587 36.4679 49.1552 36.5275 48.3919 35.2752C47.6803 34.0826 48.6618 31.8177 48.6618 31.8177C48.6618 31.8177 48.2127 30.7616 48.5385 30.4082C48.7644 30.2586 49.029 30.183 49.2976 30.1913L49.9892 28.7189C49.7538 28.7289 49.5193 28.6855 49.3021 28.5918C49.0849 28.4981 48.8904 28.3564 48.7325 28.1768C48.296 27.6109 48.2591 27.3507 48.5943 27.1945C50.5248 26.6985 52.5086 26.4565 54.4983 26.4746C54.4983 26.4746 55.2838 26.3955 55.9638 27.7952C55.9638 27.7952 56.2938 28.3612 55.7329 28.4978L55.7276 28.4988ZM47.2375 34.1585C47.177 34.3642 47.0755 34.5546 46.9394 34.7176C46.8033 34.8806 46.6357 35.0126 46.4471 35.1052C46.2586 35.1978 46.0533 35.2488 45.8445 35.2552C45.6357 35.2615 45.4278 35.2229 45.2343 35.1419C44.296 34.6768 42.8032 31.5325 42.8032 31.5325C42.8032 31.5325 42.236 30.3605 42.1274 30.3908C42.1274 30.3908 42.0051 30.1621 41.9302 31.4436C41.8554 32.7252 41.945 35.2069 41.4505 35.5984C41.3536 35.6855 41.2391 35.7495 41.1154 35.7859C40.9916 35.8223 40.8615 35.8302 40.7345 35.8089C40.6074 35.7877 40.4864 35.7379 40.3802 35.6631C40.274 35.5883 40.1852 35.4903 40.12 35.3761C39.7631 34.2776 39.683 33.1041 39.887 31.9651C40.0589 30.0753 40.4848 28.0619 41.0309 27.4396C41.0952 27.3439 41.181 27.2656 41.2811 27.2113C41.3811 27.157 41.4923 27.1284 41.6054 27.1277C41.7185 27.1271 41.8301 27.1545 41.9307 27.2077C42.0313 27.2608 42.1179 27.3381 42.1833 27.4331C42.93 28.2396 43.578 29.1372 44.1126 30.1057L44.3234 30.4743C44.6843 31.1276 45.0872 31.7553 45.5295 32.3533C45.5295 32.3533 45.6192 32.44 45.6982 32.3771C45.8131 32.3435 45.7668 31.7396 45.7668 31.7396C45.5004 29.8664 45.0919 28.0176 44.5448 26.21C44.4574 25.9395 44.4407 25.6501 44.4963 25.3709C44.6018 24.961 44.9971 25.154 44.9971 25.154C46.1599 25.9323 46.9824 27.1456 47.2902 28.5368C47.8356 30.3718 47.8183 32.335 47.2406 34.1596L47.2375 34.1585ZM63.8519 32.6113C63.1498 33.8723 61.1656 36.5145 58.5299 35.8889C57.5093 38.3291 56.8293 40.9054 56.5099 43.5414C56.5099 43.5414 56.4182 44.18 55.9016 43.9577C55.4892 43.7331 55.1354 43.4098 54.8701 43.015C54.6047 42.6203 54.4356 42.1656 54.3771 41.6895C54.1936 40.1001 54.8821 37.4144 56.2874 34.3341C55.7669 33.4094 55.606 32.3162 55.8373 31.2745C56.248 29.353 57.2606 27.6233 58.7197 26.351C58.7197 26.351 59.0233 26.0821 59.1983 26.1645C59.3923 26.248 59.3038 27.0904 59.1488 27.5003C58.9938 27.9101 57.8636 29.9127 57.8636 29.9127C57.4778 30.6554 57.3028 31.4947 57.3586 32.3348C58.6849 30.2379 61.7001 26.0084 63.5694 27.3474C63.8989 27.674 64.1525 28.0728 64.3113 28.5141C64.4701 28.9554 64.53 29.4279 64.4866 29.8964C64.4955 30.8424 64.2783 31.7762 63.854 32.6157L63.8519 32.6113ZM63.309 29.2947C63.309 29.2947 63.2035 28.4609 62.4128 29.3792C61.2723 30.6437 60.2969 32.0557 59.5114 33.5795C60.365 33.4694 61.1743 33.1261 61.8551 32.5853C62.3311 32.1921 62.7107 31.6896 62.9634 31.1181C63.2161 30.5465 63.3348 29.922 63.31 29.2947H63.309ZM78.3757 29.1049H73.5218C73.4257 27.4174 73.2232 25.738 72.9156 24.0774C72.9003 23.9925 72.8567 23.9158 72.7922 23.8605C72.7276 23.8053 72.6464 23.775 72.5624 23.7749H71.4491C71.4012 23.7759 71.3541 23.7876 71.3111 23.8093C71.268 23.831 71.2301 23.8621 71.2 23.9004C71.1699 23.9387 71.1483 23.9833 71.1367 24.0311C71.1251 24.0789 71.1237 24.1287 71.1328 24.1771C71.4471 25.8037 71.6528 27.4505 71.7485 29.106H67.097C66.9932 29.106 66.8936 29.1484 66.8201 29.2238C66.7465 29.2992 66.7051 29.4015 66.7048 29.5083V30.5415C66.7048 30.6486 66.7461 30.7513 66.8196 30.8271C66.8931 30.9029 66.9929 30.9457 67.097 30.9459H71.8107C71.8107 31.2007 71.816 31.4295 71.816 31.6431C71.8212 33.0126 71.7508 34.3813 71.6051 35.7425C71.5998 35.7948 71.6052 35.8477 71.6209 35.8977C71.6367 35.9477 71.6624 35.9938 71.6964 36.033C71.7305 36.0721 71.7721 36.1036 71.8186 36.1253C71.8652 36.147 71.9156 36.1584 71.9668 36.1589H72.9999C73.097 36.1591 73.1906 36.1221 73.2625 36.0552C73.3344 35.9882 73.3795 35.8961 73.389 35.7968C73.5295 34.4174 73.5967 33.0311 73.5903 31.6442C73.5903 31.4273 73.5903 31.2018 73.5903 30.947H78.3557C78.4598 30.9467 78.5596 30.904 78.6331 30.8282C78.7066 30.7524 78.7479 30.6497 78.7479 30.5426V29.5093C78.7476 29.4025 78.7062 29.3 78.6327 29.2245C78.5592 29.1489 78.4596 29.1063 78.3557 29.106" fill="#101C50"></path>
<path d="M13.7583 15.2529C13.7247 15.3042 13.7031 15.3628 13.6952 15.4241C13.6874 15.4855 13.6934 15.5478 13.713 15.6063C13.7325 15.665 13.7648 15.7184 13.8073 15.7623C13.8499 15.8063 13.9016 15.8397 13.9586 15.86L14.8242 16.1593C14.8743 16.176 14.9265 16.1848 14.9792 16.1853C15.0581 16.1857 15.1359 16.1661 15.2058 16.1283C15.2756 16.0905 15.3354 16.0356 15.3798 15.9685C18.2682 11.5901 22.1552 8.00569 26.7011 5.52831C31.2471 3.05092 36.3137 1.75593 41.4585 1.75645C47.6553 1.75851 53.7143 3.63742 58.8792 7.15868C64.044 10.6799 68.0861 15.6876 70.5009 21.5566C70.5358 21.6417 70.5945 21.7143 70.6696 21.7651C70.7447 21.8158 70.8327 21.8425 70.9226 21.8417H71.9568C72.0159 21.8415 72.074 21.8264 72.126 21.7978C72.1781 21.7691 72.2226 21.7278 72.2555 21.6775C72.2885 21.6271 72.309 21.5692 72.3152 21.5088C72.3214 21.4484 72.3131 21.3874 72.291 21.331C70.0118 15.5687 66.2486 10.5541 61.4058 6.82635C56.5631 3.0986 50.8241 0.798655 44.8056 0.173751C38.7871 -0.451152 32.7169 0.622617 27.2473 3.27963C21.7778 5.93665 17.1158 10.0764 13.7625 15.254" fill="url(&quot;#paint0_linear_925_2167&quot;)"></path>
</g>
<defs>
<linearGradient id="paint0_linear_925_2167" x1="72.3172" y1="21.8417" x2="35.8539" y2="-8.82603" gradientUnits="userSpaceOnUse">
<stop stop-color="#101C50"></stop>
<stop offset="0.236" stop-color="#0D267A"></stop>
<stop offset="0.497" stop-color="#085AA4"></stop>
<stop offset="0.655" stop-color="#058BBF"></stop>
<stop offset="1" stop-color="#B1FFFF"></stop>
</linearGradient>
<clipPath id="clip0_925_2167">
<rect width="79" height="44" fill="white"></rect>
</clipPath>
<linearGradient id="paint0_linear_925_2167" x1="72.3172" y1="21.8417" x2="35.8539" y2="-8.82603" gradientUnits="userSpaceOnUse">
<stop stop-color="#101C50"></stop>
<stop offset="0.236" stop-color="#0D267A"></stop>
<stop offset="0.497" stop-color="#085AA4"></stop>
<stop offset="0.655" stop-color="#058BBF"></stop>
<stop offset="1" stop-color="#B1FFFF"></stop>
</linearGradient><linearGradient id="paint0_linear_925_2167" x1="72.3172" y1="21.8417" x2="35.8539" y2="-8.82603" gradientUnits="userSpaceOnUse">
<stop stop-color="#101C50"></stop>
<stop offset="0.236" stop-color="#0D267A"></stop>
<stop offset="0.497" stop-color="#085AA4"></stop>
<stop offset="0.655" stop-color="#058BBF"></stop>
<stop offset="1" stop-color="#B1FFFF"></stop>
</linearGradient></defs>
</svg>