<svg xmlns:xlink="http://www.w3.org/1999/xlink" width="178" height="56" viewBox="0 0 178 56" fill="none" xmlns="http://www.w3.org/2000/svg"><g clip-path="url(#clip0_753_2519)" fill="none"><path fill-rule="evenodd" clip-rule="evenodd" d="M57.2976 19.9384H65.4507V14.512H43.5368V19.9384H51.6899V41.6742H57.2998V19.9384H57.2976ZM65.7895 23.1551V34.774C65.7832 35.7053 65.9261 36.6315 66.213 37.5176C66.4846 38.3559 66.903 39.1394 67.4488 39.8314C68.0189 40.5383 68.7523 41.0962 69.5859 41.4571C70.5321 41.8656 71.5546 42.0676 72.5852 42.0497C74.8092 42.0497 76.5322 41.1576 77.7542 39.3734H77.8041V41.6742H83.1425V23.1551H77.7368V33.4695C77.7727 34.3985 77.4693 35.3088 76.8833 36.0308C76.3164 36.7015 75.4933 37.0379 74.4074 37.0379C73.3215 37.0379 72.5157 36.7167 71.9836 36.072C71.4515 35.4274 71.1887 34.5657 71.1887 33.4804V23.1551H65.7895ZM98.15 22.9533C97.1695 22.9436 96.2031 23.1866 95.3439 23.6587C94.4639 24.1634 93.7666 24.934 93.3524 25.8596H93.3024V23.1551H88.1595V41.6742H93.4631V33.5542C93.4631 31.8727 93.8642 30.5776 94.6663 29.6689C95.4685 28.7602 96.5363 28.3051 97.8698 28.3036C98.452 28.295 99.0336 28.3408 99.6073 28.4404V23.1377C99.1315 23.0136 98.6417 22.9516 98.15 22.9533ZM105.521 20.0382C105.969 20.0474 106.415 19.9651 106.83 19.7964C107.245 19.6277 107.622 19.3762 107.936 19.0571C108.25 18.7453 108.499 18.3744 108.669 17.966C108.839 17.5575 108.927 17.1195 108.927 16.6771C108.927 16.2347 108.839 15.7967 108.669 15.3883C108.499 14.9798 108.25 14.609 107.936 14.2971C107.621 13.9785 107.245 13.7272 106.83 13.5586C106.414 13.3899 105.969 13.3074 105.521 13.316C105.084 13.3118 104.651 13.3974 104.249 13.5677C103.846 13.738 103.483 13.9892 103.182 14.3058C102.553 14.9368 102.2 15.791 102.2 16.6815C102.2 17.572 102.553 18.4262 103.182 19.0571C103.484 19.3717 103.848 19.6211 104.25 19.7898C104.652 19.9586 105.085 20.0431 105.521 20.0382ZM108.284 23.1551V41.6742H102.854V23.1551H108.284ZM130.654 41.6677V30.1508C130.66 29.2129 130.526 28.2794 130.256 27.3812C130 26.5384 129.598 25.7472 129.068 25.0435C128.516 24.3278 127.794 23.7603 126.968 23.3917C126.017 22.9695 124.984 22.762 123.943 22.784C123.627 22.7889 123.313 22.8201 123.002 22.8773C122.536 22.9637 122.075 23.0797 121.623 23.2246C121.033 23.4141 120.482 23.7082 119.997 24.0928C119.472 24.492 119.034 24.9933 118.709 25.5666H118.657V23.1551H113.292V41.6742H118.68V31.388C118.65 30.4601 118.953 29.552 119.536 28.8289C120.108 28.1416 120.935 27.7972 122.019 27.7957C123.102 27.7943 123.907 28.122 124.434 28.779C124.969 29.4345 125.238 30.3027 125.239 31.3836V41.6742L130.654 41.6677ZM148.771 23.1551V25.3951H148.704C148.279 24.8782 147.779 24.4275 147.221 24.0581C146.723 23.7197 146.178 23.4571 145.603 23.2788C145.153 23.1394 144.695 23.0321 144.23 22.9576C143.86 22.9011 143.486 22.8728 143.111 22.8729C141.859 22.8619 140.621 23.1397 139.493 23.6847C138.423 24.1943 137.475 24.9279 136.713 25.8357C135.968 26.7384 135.38 27.7607 134.976 28.8593C134.559 29.9696 134.346 31.1462 134.348 32.3322C134.328 33.9741 134.709 35.5961 135.458 37.0574C136.179 38.4585 137.276 39.631 138.627 40.4435C140.035 41.2893 141.653 41.7239 143.296 41.6981C145.59 41.6981 147.369 40.874 148.634 39.2258H148.702V41.3421C148.717 42.0985 148.579 42.8501 148.296 43.5517C148.057 44.1456 147.676 44.6719 147.186 45.0841C146.716 45.4696 146.178 45.764 145.6 45.9523C144.993 46.1484 144.358 46.2458 143.72 46.241C142.524 46.241 141.555 45.9111 140.814 45.2512C140.09 44.6213 139.603 43.7639 139.432 42.8202L134.437 44.2593C134.602 45.1444 134.942 45.9877 135.436 46.7402C136.568 48.4786 138.274 49.7646 140.258 50.3737C141.451 50.7544 142.697 50.9427 143.95 50.9315C145.333 50.9473 146.709 50.727 148.018 50.2804C149.206 49.8713 150.298 49.226 151.23 48.3833C152.18 47.494 152.908 46.3945 153.356 45.1731C153.885 43.7486 154.143 42.2382 154.118 40.7191V23.1551H148.771ZM147.551 35.6553C146.69 36.4892 145.538 36.9556 144.34 36.9556C143.141 36.9556 141.989 36.4892 141.129 35.6553C140.27 34.7871 139.841 33.6721 139.841 32.3105C139.82 31.6964 139.925 31.0847 140.149 30.5126C140.373 29.9404 140.712 29.42 141.144 28.983C142 28.144 143.151 27.674 144.35 27.674C145.55 27.674 146.701 28.144 147.557 28.983C147.989 29.4186 148.327 29.9376 148.551 30.5082C148.775 31.0788 148.88 31.6891 148.86 32.3018C148.862 33.6678 148.427 34.7856 147.557 35.6553H147.551Z" fill="#FFFFFF"></path><path d="M26.5095 14.9918L0.0369213 55.9999V47.0334C0.0369213 44.2421 -0.110764 41.301 0.184607 38.5097C0.309437 36.7111 0.810332 34.9586 1.65495 33.3655C4.89099 28.0737 8.27255 22.9295 11.6563 17.6377C12.1539 16.7927 12.8624 16.0912 13.7124 15.6016C14.5624 15.1119 15.5249 14.851 16.506 14.8442C19.7442 14.9918 22.9803 14.9918 26.5095 14.9918Z" fill="#FFFFFF"></path><path d="M36.0678 0C32.8339 2.93891 29.8911 5.88 26.9461 8.52589C24.2247 10.9955 20.761 12.494 17.0968 12.7867C11.5086 13.0819 5.92045 12.7867 0.184607 12.7867V0H36.0678Z" fill="#FFFFFF"></path></g><defs><clipPath id="clip0_753_2519"><rect width="154.116" height="56" fill="white"></rect></clipPath></defs></svg>