<svg width="48" height="48" viewBox="0 0 48 48" fill="none" xmlns="http://www.w3.org/2000/svg">
<rect opacity="0.1" width="48" height="48" rx="12" fill="#66CC80"/>
<path d="M25.4932 10.7467L18.1066 18.1334C17.6133 18.6267 17.3333 19.3067 17.3333 20.0134V33.3334C17.3333 34.8 18.5333 36 19.9999 36H31.9999C33.0666 36 34.0266 35.36 34.4533 34.3867L38.7999 24.24C39.9199 21.6 37.9866 18.6667 35.1199 18.6667H27.5866L28.8533 12.56C28.9866 11.8934 28.7866 11.2134 28.3066 10.7334C27.5199 9.96004 26.2666 9.96004 25.4932 10.7467ZM11.9999 36C13.4666 36 14.6666 34.8 14.6666 33.3334V22.6667C14.6666 21.2 13.4666 20 11.9999 20C10.5333 20 9.33325 21.2 9.33325 22.6667V33.3334C9.33325 34.8 10.5333 36 11.9999 36Z" fill="#66CC80"/>
</svg>
